<svg id="Layer_1" data-name="Layer 1" xmlns="http://www.w3.org/2000/svg" viewBox="0 0 495 495"><defs><style>.cls-1{fill:#d8b6d6;}.cls-2{fill:#fff;}</style></defs><circle class="cls-1" cx="247.5" cy="247.5" r="247.5"/><g id="g3013"><path id="path2999" class="cls-2" d="M178.83,66.43h39.95v16.7H195.54V99.84h23.24v16.7H178.83Z" transform="translate(-2.5 -2.5)"/><path id="path3001" class="cls-2" d="M226.76,66.43h39.95V81H243.47v2.9h23.24v33.41H226.76V102H250V99.11H226.76Z" transform="translate(-2.5 -2.5)"/><path id="path3003" class="cls-2" d="M274.7,66.43h39.94V81H291.4v2.9h23.24v33.41H274.7V102h23.24V99.11H274.7Z" transform="translate(-2.5 -2.5)"/><path class="cls-2" d="M116.83,139.51l24,268.89,107.58,29.87,107.88-29.91,24-268.85Zm64,223-4.62-51.78h33.11l2.35,26.3,36.73,9.92h0L285.22,337l3.83-42.77H174.75l-3-33H291.91l3-33.77H168.85l-3-33H331.05l-5.95,66.75-.81,8.86-7.75,86.82-.49,5.57-67.5,18.71h0l-.15.05Z" transform="translate(-2.5 -2.5)"/></g></svg>