<svg id="Layer_1" data-name="Layer 1" xmlns="http://www.w3.org/2000/svg" viewBox="0 0 495 495"><defs><style>.cls-1{fill:#d8b6d6;}.cls-2{fill:#fff;}</style></defs><circle class="cls-1" cx="247.5" cy="247.5" r="247.5"/><path class="cls-2" d="M284,219.26c-10.11,0-17.64,5-17.64,16.91,0,9,5,15.25,17.1,15.25,10.28,0,17.27-6.06,17.27-15.62,0-10.84-6.25-16.54-16.73-16.54Zm-20.22,84.36c-2.39,2.93-4.78,6.05-4.78,9.74,0,7.34,9.37,9.55,22.24,9.55,10.66,0,25.18-.74,25.18-10.65,0-5.9-7-6.26-15.81-6.81l-26.83-1.83Zm54.4-83.81c3.3,4.23,6.8,10.11,6.8,18.56,0,20.4-16,32.35-39.14,32.35a58.76,58.76,0,0,1-14.52-1.65l-6.07,9.74,18,1.1c31.79,2,50.53,2.94,50.53,27.38,0,21.13-18.55,33.07-50.53,33.07-33.26,0-45.94-8.45-45.94-23,0-8.27,3.67-12.67,10.1-18.75-6.06-2.56-8.08-7.15-8.08-12.12,0-4,2-7.72,5.33-11.21s7-7,11.39-11c-9-4.41-15.8-14-15.8-27.56,0-21.14,14-35.65,42.08-35.65,7.9,0,12.68.73,16.91,1.84h35.84v15.62l-16.91,1.28" transform="translate(-2.5 -2.5)"/><path class="cls-2" d="M367.4,186.42c-10.48,0-16.54-6.07-16.54-16.55s6.06-16.17,16.54-16.17c10.66,0,16.72,5.7,16.72,16.17S378.06,186.42,367.4,186.42ZM343.69,296.85V282.34l9.37-1.28c2.57-.37,2.94-.92,2.94-3.68v-54c0-2-.55-3.31-2.39-3.86L343.69,216l2-14.88h38v76.26c0,2.94.18,3.31,2.94,3.68l9.38,1.28v14.52H343.68" transform="translate(-2.5 -2.5)"/><path class="cls-2" d="M468.74,289.73c-7.91,3.86-19.48,7.35-30,7.35-21.87,0-30.14-8.81-30.14-29.59V219.35c0-1.1,0-1.84-1.48-1.84H394.3V201.15c16.18-1.84,22.61-9.93,24.63-30h17.46V197.3c0,1.28,0,1.83,1.47,1.83h25.91v18.38H436.39v43.92c0,10.84,2.58,15.06,12.49,15.06a43.84,43.84,0,0,0,14.89-2.93l5,16.17" transform="translate(-2.5 -2.5)"/><path class="cls-2" d="M220.09,241.5l-84-84a12.4,12.4,0,0,0-17.53,0l-17.45,17.45,22.14,22.13a14.72,14.72,0,0,1,18.64,18.77l21.33,21.33a14.73,14.73,0,1,1-8.84,8.32l-19.89-19.9v52.35a15.18,15.18,0,0,1,3.9,2.79,14.75,14.75,0,1,1-16-3.21V224.67a14.75,14.75,0,0,1-8-19.34L92.51,183.5,34.89,241.12a12.4,12.4,0,0,0,0,17.53l84,84a12.4,12.4,0,0,0,17.53,0L220.09,259a12.4,12.4,0,0,0,0-17.53" transform="translate(-2.5 -2.5)"/></svg>