<?xml version="1.0" encoding="utf-8"?>
<!-- Generator: Adobe Illustrator 26.0.2, SVG Export Plug-In . SVG Version: 6.00 Build 0)  -->
<svg version="1.1" id="Layer_1" xmlns="http://www.w3.org/2000/svg" xmlns:xlink="http://www.w3.org/1999/xlink" x="0px" y="0px"
	 viewBox="0 0 500 500" style="enable-background:new 0 0 500 500;" xml:space="preserve">
<style type="text/css">
	.st0{fill:#D8B6D6;}
	.st1{display:none;}
	.st2{display:inline;fill:#FFFFFF;}
	.st3{fill-rule:evenodd;clip-rule:evenodd;fill:#FFFFFF;}
</style>
<circle class="st0" cx="250" cy="250" r="247.5"/>
<g class="st1">
	<path class="st2" d="M291.75,299.46c10.66,17.4,24.52,30.19,49.04,30.19c20.6,0,33.75-10.29,33.75-24.52
		c0-17.04-13.52-23.08-36.19-33l-12.43-5.33c-35.87-15.28-59.7-34.43-59.7-74.9c0-37.28,28.41-65.66,72.8-65.66
		c31.6,0,54.33,11,70.7,39.8l-38.71,24.85c-8.52-15.28-17.72-21.3-31.99-21.3c-14.56,0-23.79,9.24-23.79,21.3
		c0,14.91,9.24,20.95,30.56,30.19l12.43,5.32c42.23,18.11,66.08,36.58,66.08,78.09c0,44.75-35.16,69.27-82.37,69.27
		c-46.16,0-75.99-22-90.58-50.83L291.75,299.46z M116.15,303.77c7.81,13.85,14.91,25.57,31.99,25.57c16.33,0,26.63-6.39,26.63-31.24
		V129.08h49.71v169.69c0,51.47-30.18,74.9-74.23,74.9c-39.8,0-62.85-20.6-74.57-45.4L116.15,303.77z"/>
</g>
<path class="st3" d="M250,62.34c-106.3,0-192.4,86.1-192.4,192.4c0,85.14,55.08,157.05,131.56,182.54
	c9.62,1.68,13.23-4.09,13.23-9.14c0-4.57-0.24-19.72-0.24-35.84c-48.34,8.9-60.85-11.78-64.7-22.61
	c-2.16-5.53-11.54-22.61-19.72-27.18c-6.73-3.61-16.35-12.51-0.24-12.75c15.15-0.24,25.97,13.95,29.58,19.72
	c17.32,29.1,44.97,20.92,56.04,15.87c1.68-12.51,6.73-20.92,12.27-25.73c-42.81-4.81-87.54-21.4-87.54-95
	c0-20.92,7.46-38.24,19.72-51.71c-1.92-4.81-8.66-24.53,1.92-50.99c0,0,16.11-5.05,52.91,19.72c15.39-4.33,31.75-6.49,48.1-6.49
	s32.71,2.16,48.1,6.49c36.8-25.01,52.91-19.72,52.91-19.72c10.58,26.46,3.85,46.18,1.92,50.99c12.27,13.47,19.72,30.54,19.72,51.71
	c0,73.84-44.97,90.19-87.78,95c6.97,6.01,12.99,17.56,12.99,35.59c0,25.73-0.24,46.42-0.24,52.91c0,5.05,3.61,11.06,13.23,9.14
	c76-25.49,131.08-97.65,131.08-182.54C442.4,148.44,356.3,62.34,250,62.34z"/>
</svg>
