<svg id="Layer_1" data-name="Layer 1" xmlns="http://www.w3.org/2000/svg" xmlns:xlink="http://www.w3.org/1999/xlink" viewBox="0 0 4514.54 1903.13"><defs><style>.cls-1,.cls-3{fill:none;}.cls-2{clip-path:url(#clip-path);}.cls-3{stroke:#f9c243;stroke-width:3.82px;}.cls-19,.cls-3{stroke-miterlimit:10;}.cls-4{clip-path:url(#clip-path-2);}.cls-5{fill:#ffefc9;}.cls-19,.cls-6{fill:#fff;}.cls-7{font-size:218.95px;font-family:Arial-Black, Arial Black;font-weight:800;}.cls-20,.cls-7{fill:#f26c6e;}.cls-8{fill:#d8b6d6;}.cls-9{fill:#cdebf4;}.cls-10{fill:#935393;}.cls-11{fill:#fff1ca;}.cls-12{isolation:isolate;}.cls-13{fill:#f26d6f;}.cls-14{fill:#ffd16d;}.cls-15{fill:#f9a01e;}.cls-16{fill:#e86365;}.cls-17{fill:#ffde89;}.cls-18{fill:#50c6df;}.cls-19{stroke:#8b358d;stroke-width:3px;}</style><clipPath id="clip-path" transform="translate(708.59 -34.01)"><rect class="cls-1" x="11" width="2815.52" height="1690.3"/></clipPath><clipPath id="clip-path-2" transform="translate(708.59 -34.01)"><path class="cls-1" d="M109,1388.94c101.35,231.42,222.4,459.94,643.45,548.19l1819.82-15.26c410.09-152.83,634.18-454.58,671.45-780.12,12.33-107.59,4.28-217.83-24.33-326.08q-11.2-42.78-26.74-85c-94-255.75-293-496.86-589-632.86-190.19-87.4-434-58.55-636-13.69-182.12,40.45-360,97.09-548,114.14-149.77,13.54-302.14,1.52-452.42,6.18-53.77,1.65-107.2,5.45-160.2,13.31-227,33.64-428.2,143.47-566.29,290.3C193.17,558.51,153.1,613.35,122,670.94.4,896.22,7.67,1157.52,109,1388.94Z"/></clipPath></defs><g class="cls-2"><path class="cls-3" d="M2183.41,1717.24c354.05-53.51,604.14-214.56,720.22-464,184.66-396.84-13.2-981.85-542.53-1110.37-209.64-50.91-467.06,40.24-682.43,39-302.51-1.74-574.52-146.66-875-128.19C412.43,77.68,126.48,359.05,53.11,644.53c-25.19,98-28.11,199.4-7.94,298,21.9,107.19,66.52,212.2,134.22,305.07,58.33,80,193.22,185.95,308,207.29Z" transform="translate(708.59 -34.01)"/><g class="cls-4"><path class="cls-5" d="M109,1388.94c101.35,231.42,222.4,459.94,643.45,548.19l1819.82-15.26c410.09-152.83,634.18-454.58,671.45-780.12,12.33-107.59,4.28-217.83-24.33-326.08q-11.2-42.78-26.74-85c-94-255.75-293-496.86-589-632.86-190.19-87.4-434-58.55-636-13.69-182.12,40.45-360,97.09-548,114.14-149.77,13.54-302.14,1.52-452.42,6.18-53.77,1.65-107.2,5.45-160.2,13.31-227,33.64-428.2,143.47-566.29,290.3C193.17,558.51,153.1,613.35,122,670.94.4,896.22,7.67,1157.52,109,1388.94Z" transform="translate(708.59 -34.01)"/><path class="cls-6" d="M3570.81,1739.37c8.28-79.51-48.14-165.21-147.24-223.72-90.27-53.26-201.64-80.42-308.55-101.83-594-119-1221.45-104.77-1828.23-91-542.27,12.28-1103,24.94-1639.82-57.08-76.42-11.67-156.76-25.89-225.1-59.35-73.43-35.94-119.92-92.26-121.34-146.95-2.63-102.56,138.18-172.85,222.35-205.62,319.65-124.47,713-171.28,1237.75-147.37A7402.77,7402.77,0,0,1,1938.07,855.54c86.82,18.19,175,38.32,260.32,57.77C2503.75,983,2819.48,1055,3141.54,1055h4.84c87.43-.19,199.66-14.17,237.92-79.61,27-46.19,4.29-98.8-19.51-134.8-79.55-120.34-230-190.48-342.28-228.14-126.09-42.29-263.09-65.27-395.58-87.51q-23.59-4-47.15-7.94c-296-50.32-591.85-113.23-879.34-187-136.42-35-206.45-80.58-214.06-139.23C1479.63,138.68,1528,93.1,1579,71c61.07-26.46,133.19-29.88,189.23-29.92h.79c169.09,0,336.86,32.74,485.3,94.7,55.14,23,108.36,50.39,159.79,76.87,68.13,35,138.57,71.3,214.48,98,146.82,51.55,320.64,70.53,516.63,56.43,151.31-10.89,266.66-40.2,352.64-89.62,51.86-29.83,95.15-68.28,137-105.48C3685.74,126.78,3738.35,80,3806,49.67l-4.48-6.2c-68.9,31-122,78.14-173.38,123.78-41.55,36.91-84.51,75.08-135.58,104.45-84.6,48.64-198.48,77.51-348.13,88.29-194.4,14-366.74-4.81-512.15-55.84C2557,277.72,2486.82,241.63,2419,206.73c-51.62-26.57-105-54-160.51-77.21C2108.77,67,1939.51,34,1769,34h-.8c-57.09,0-130.71,3.57-193.56,30.79C1521,88,1470.21,136.17,1477.37,191.45c8,61.77,80.05,109.29,220.25,145.27C1985.38,410.61,2281.55,473.6,2577.86,524q23.55,4,47.16,7.95C2757.11,554.06,2893.68,577,3019,619c110.88,37.18,259.47,106.39,337.79,224.86,22.86,34.6,44.78,85,19.32,128.54-36.26,62-144.93,75.27-229.72,75.46h-4.82c-320.79,0-635.86-71.87-940.65-141.38-85.33-19.47-173.6-39.6-260.51-57.81A7412.84,7412.84,0,0,0,761.12,699.3C234.7,675.29-160,722.36-481.17,847.39c-86.1,33.53-230.13,105.66-227.38,212.17,1.46,57.08,49.6,115.66,125.6,152.86,69.67,34.1,150.9,48.47,228.16,60.27,537.79,82.17,1099,69.49,1641.8,57.21,606.13-13.7,1232.93-27.88,1825.74,90.84,106,21.24,216.36,48.11,305.35,100.63,96.62,57,151.67,140.36,143.62,217.43Z" transform="translate(708.59 -34.01)"/></g><text class="cls-7" transform="translate(1072.67 1250.33)">&lt;% %&gt;</text><path class="cls-1" d="M2319.12,1269.8l.33-.26c-.19.14-.39.28-.58.4Z" transform="translate(708.59 -34.01)"/><path class="cls-1" d="M2314.36,1272.09l.16-.07-.59.16C2314.07,1272.14,2314.22,1272.13,2314.36,1272.09Z" transform="translate(708.59 -34.01)"/><path class="cls-1" d="M2316.81,1271.13l.24-.14-.29.16Z" transform="translate(708.59 -34.01)"/><path class="cls-1" d="M2321.26,1268.11c.07-.06.13-.14.2-.2l-.54.47C2321,1268.29,2321.15,1268.21,2321.26,1268.11Z" transform="translate(708.59 -34.01)"/><path class="cls-1" d="M2324.82,1263.78l.14-.22c.06-.11.11-.23.18-.35-.14.24-.28.49-.43.72Z" transform="translate(708.59 -34.01)"/><path class="cls-1" d="M2323.34,1265.87l0,0,0,0Z" transform="translate(708.59 -34.01)"/><path class="cls-1" d="M2326.28,1261l.06-.13c0-.06,0-.14.08-.2l-.36.76C2326.13,1261.3,2326.22,1261.17,2326.28,1261Z" transform="translate(708.59 -34.01)"/><path class="cls-8" d="M2632.19,638.36l-796.12-412c-7.73-4-14.66-4.11-19.46-1.1h0l-14.43,7.94,7.66,9.46-1.76,557.65c0,14.88,11.61,33,26.06,40.45l792.52,410.12,8.77,10.83,13.34-7.28h0l0,0h0c4.7-2.44,7.62-7.64,7.65-15l1.77-560.55C2658.3,664,2646.64,645.84,2632.19,638.36Z" transform="translate(708.59 -34.01)"/><path class="cls-9" d="M2617.72,646.32c14.45,7.48,26.1,25.6,26.06,40.45L2642,1247.32c0,14.88-11.77,20.87-26.22,13.39l-796.13-412c-14.44-7.48-26.1-25.57-26.05-40.45l1.77-560.55c.05-14.84,11.78-20.87,26.23-13.39Z" transform="translate(708.59 -34.01)"/><path class="cls-10" d="M2617.7,654c10.28,5.32,18.65,18.32,18.62,28.91l-1.78,560.55c0,10.59-8.46,14.89-18.74,9.57l-796.12-412c-10.32-5.34-18.66-18.32-18.62-28.91l1.77-560.55c0-10.59,8.43-14.91,18.74-9.57Zm-20.46,550.88,1.65-522.06L1840.1,290.15l-1.65,522.07,758.79,392.66" transform="translate(708.59 -34.01)"/><polygon class="cls-11" points="3307.49 648.81 3305.84 1170.88 2547.04 778.21 2548.69 256.14 3307.49 648.81"/><path class="cls-10" d="M2634.56,1272.29c-.52,4.69-4.17,9.29-11,12.88l-509.34,265.3c-14.93,7.78-39.18,7.78-54.22,0l-802.33-415.19c-7.35-3.81-11.1-8.76-11.29-13.74v42.64h0c-.24,5.27,3.5,10.59,11.28,14.62L2060,1594c15,7.78,39.29,7.78,54.22,0l509.34-265.3c7.16-3.73,10.83-8.57,11.09-13.45h.06v-43Z" transform="translate(708.59 -34.01)"/><path class="cls-8" d="M1257.62,1135.28,2060,1550.47c15,7.78,39.29,7.78,54.22,0l509.34-265.3c6.88-3.59,10.53-8.19,11-12.88.59-5.48-3.12-11.07-11.23-15.27L1821,841.82c-15-7.77-39.29-7.77-54.22,0l-509.34,265.31c-7.16,3.73-10.83,8.57-11.09,13.46a1.64,1.64,0,0,0,0,.22c0,.25,0,.49,0,.73C1246.52,1126.52,1250.27,1131.47,1257.62,1135.28Z" transform="translate(708.59 -34.01)"/><path class="cls-10" d="M1801.82,970.68c3.17,1.64,3.19,4.31,0,6L1768.61,994a13.9,13.9,0,0,1-11.45,0L1656.77,942c-3.15-1.63-3.19-4.29,0-5.93L1690,918.74a13.94,13.94,0,0,1,11.45,0Z" transform="translate(708.59 -34.01)"/><path class="cls-10" d="M1789.09,910.48c3.17,1.64,3.19,4.29,0,5.93l-33.24,17.31a13.79,13.79,0,0,1-11.42,0l-36-18.65c-3.15-1.63-3.19-4.28,0-5.93l33.23-17.31a13.93,13.93,0,0,1,11.43,0Z" transform="translate(708.59 -34.01)"/><g class="cls-12"><path class="cls-10" d="M1938.62,948.77c3.15,1.63,3.19,4.28,0,5.93l-19.24,10a13.91,13.91,0,0,1-11.42,0l-36-18.65c-3.17-1.65-3.19-4.29,0-5.93l19.24-10a13.79,13.79,0,0,1,11.42,0Z" transform="translate(708.59 -34.01)"/><path class="cls-10" d="M1901,968.38c3.15,1.63,3.19,4.29,0,5.93l-33.24,17.31a13.89,13.89,0,0,1-11.43,0l-36-18.65c-3.18-1.64-3.2-4.28,0-5.93l33.24-17.31a13.79,13.79,0,0,1,11.42,0Z" transform="translate(708.59 -34.01)"/><path class="cls-10" d="M1994.54,977.7c3.17,1.65,3.19,4.29,0,5.93l-19.24,10a13.79,13.79,0,0,1-11.42,0l-36-18.65c-3.15-1.63-3.2-4.28,0-5.93l19.24-10a13.91,13.91,0,0,1,11.42,0Z" transform="translate(708.59 -34.01)"/><path class="cls-10" d="M1956.89,997.31c3.17,1.65,3.19,4.29,0,5.94l-33.23,17.31a13.89,13.89,0,0,1-11.43,0l-36-18.65c-3.15-1.63-3.19-4.29,0-5.93l33.23-17.32a13.93,13.93,0,0,1,11.43,0Z" transform="translate(708.59 -34.01)"/></g><path class="cls-10" d="M1845,939.43c3.17,1.64,3.19,4.29,0,5.93l-33.24,17.31a13.82,13.82,0,0,1-11.43,0l-36-18.65c-3.17-1.64-3.19-4.28,0-5.93l33.24-17.31a13.87,13.87,0,0,1,11.42,0Z" transform="translate(708.59 -34.01)"/><g class="cls-12"><path class="cls-10" d="M1826.74,890.87c3.17,1.64,3.19,4.29,0,5.93l-19.23,10a13.89,13.89,0,0,1-11.43,0l-36-18.65c-3.15-1.63-3.2-4.29,0-5.93l19.23-10a13.89,13.89,0,0,1,11.43,0Z" transform="translate(708.59 -34.01)"/><path class="cls-10" d="M1882.68,919.82c3.18,1.64,3.19,4.29,0,5.93l-19.24,10a13.87,13.87,0,0,1-11.42,0l-36-18.65c-3.18-1.64-3.19-4.29,0-5.93l19.24-10a13.79,13.79,0,0,1,11.42,0Z" transform="translate(708.59 -34.01)"/></g><path class="cls-10" d="M2068.77,1055.21c3.15,1.63,3.19,4.29,0,5.93l-33.24,17.32a13.91,13.91,0,0,1-11.42,0l-36-18.65c-3.18-1.64-3.19-4.29,0-5.93l33.24-17.32a13.87,13.87,0,0,1,11.42,0Z" transform="translate(708.59 -34.01)"/><path class="cls-10" d="M2124.69,1084.15c3.17,1.64,3.19,4.29,0,5.93l-33.24,17.31a13.82,13.82,0,0,1-11.43,0l-36-18.65c-3.15-1.63-3.19-4.28,0-5.93l33.24-17.31a13.91,13.91,0,0,1,11.42,0Z" transform="translate(708.59 -34.01)"/><path class="cls-10" d="M2162.34,1064.54c3.17,1.64,3.19,4.28,0,5.93l-19.24,10a13.87,13.87,0,0,1-11.42,0l-36-18.65c-3.15-1.63-3.19-4.29,0-5.93l19.24-10a13.87,13.87,0,0,1,11.42,0Z" transform="translate(708.59 -34.01)"/><path class="cls-10" d="M2106.42,1035.6c3.15,1.63,3.19,4.29,0,5.93l-19.24,10a13.91,13.91,0,0,1-11.42,0l-36-18.65c-3.17-1.64-3.19-4.29,0-5.93l19.24-10a13.87,13.87,0,0,1,11.42,0Z" transform="translate(708.59 -34.01)"/><path class="cls-10" d="M2050.48,1006.65c3.18,1.64,3.19,4.29,0,5.93l-19.24,10a13.79,13.79,0,0,1-11.42,0l-36-18.65c-3.18-1.64-3.19-4.29,0-5.93L2003,988a13.87,13.87,0,0,1,11.42,0Z" transform="translate(708.59 -34.01)"/><path class="cls-10" d="M1944.5,1098.15c3.18,1.64,3.17,4.3,0,5.94l-33.24,17.32a13.87,13.87,0,0,1-11.42,0l-36-18.65c-3.15-1.63-3.19-4.29,0-5.93l33.24-17.32a14,14,0,0,1,11.45,0Z" transform="translate(708.59 -34.01)"/><path class="cls-10" d="M2022.87,1085.07c3.18,1.64,3.17,4.3,0,6l-33.24,17.31a13.89,13.89,0,0,1-11.43,0l-36-18.65c-3.17-1.64-3.19-4.29,0-5.93l33.24-17.31a13.9,13.9,0,0,1,11.45,0Z" transform="translate(708.59 -34.01)"/><path class="cls-10" d="M2553.88,1267.16c3.18,1.64,3.19,4.28,0,5.93l-19.24,10a13.87,13.87,0,0,1-11.42,0l-36-18.65c-3.17-1.65-3.19-4.29,0-5.93l19.24-10a13.79,13.79,0,0,1,11.42,0Z" transform="translate(708.59 -34.01)"/><path class="cls-10" d="M1745.29,1107.53c3.18,1.64,3.2,4.29,0,5.93l-33.24,17.31a13.79,13.79,0,0,1-11.42,0l-36-18.65c-3.15-1.63-3.19-4.28,0-5.93l33.24-17.31a13.93,13.93,0,0,1,11.43,0Z" transform="translate(708.59 -34.01)"/><path class="cls-10" d="M2080.9,1281.2c3.17,1.64,3.19,4.29,0,5.93l-33.24,17.31a13.79,13.79,0,0,1-11.42,0l-36-18.65c-3.15-1.63-3.19-4.28,0-5.93l33.24-17.31a13.93,13.93,0,0,1,11.43,0Z" transform="translate(708.59 -34.01)"/><g class="cls-12"><path class="cls-10" d="M2180.63,1113.1c3.18,1.64,3.19,4.29,0,5.93l-33.24,17.31a13.82,13.82,0,0,1-11.43,0l-36-18.65c-3.18-1.64-3.2-4.28,0-5.93l33.24-17.31a13.87,13.87,0,0,1,11.42,0Z" transform="translate(708.59 -34.01)"/><path class="cls-10" d="M2078.09,1113.65c3.15,1.63,3.17,4.3,0,5.94l-33.24,17.31a13.89,13.89,0,0,1-11.43,0l-36-18.64c-3.17-1.65-3.19-4.29,0-5.94L2030.6,1095a13.92,13.92,0,0,1,11.46,0Z" transform="translate(708.59 -34.01)"/><path class="cls-10" d="M2274.22,1122.44c3.15,1.63,3.19,4.28,0,5.93l-19.24,10a13.91,13.91,0,0,1-11.42,0l-36-18.65c-3.17-1.65-3.19-4.29,0-5.93l19.24-10a13.82,13.82,0,0,1,11.43,0Z" transform="translate(708.59 -34.01)"/><path class="cls-10" d="M1998.74,1126.22c3.15,1.63,3.17,4.3,0,5.94l-33.24,17.32a13.91,13.91,0,0,1-11.42,0l-36-18.65c-3.18-1.65-3.19-4.29,0-5.94l33.24-17.31a13.9,13.9,0,0,1,11.45,0Z" transform="translate(708.59 -34.01)"/><path class="cls-10" d="M1917.26,1140.27c3.15,1.63,3.16,4.3,0,6L1884,1163.53a13.91,13.91,0,0,1-11.42,0l-36-18.65c-3.18-1.64-3.19-4.29,0-5.93l33.24-17.31a13.9,13.9,0,0,1,11.45,0Z" transform="translate(708.59 -34.01)"/><path class="cls-10" d="M2236.57,1142.05c3.15,1.63,3.19,4.29,0,5.93l-33.24,17.31a13.87,13.87,0,0,1-11.42,0l-36-18.65c-3.18-1.64-3.2-4.29,0-5.93l33.24-17.31a13.79,13.79,0,0,1,11.42,0Z" transform="translate(708.59 -34.01)"/><path class="cls-10" d="M2133.31,1142.22c3.15,1.63,3.17,4.3,0,6l-33.24,17.31a13.91,13.91,0,0,1-11.42,0l-36-18.65c-3.17-1.64-3.19-4.29,0-5.93l33.24-17.31a13.9,13.9,0,0,1,11.45,0Z" transform="translate(708.59 -34.01)"/><path class="cls-10" d="M2330.14,1151.37c3.18,1.64,3.19,4.29,0,5.93l-19.24,10a13.79,13.79,0,0,1-11.42,0l-36-18.65c-3.15-1.63-3.19-4.29,0-5.93l19.24-10a13.91,13.91,0,0,1,11.42,0Z" transform="translate(708.59 -34.01)"/><path class="cls-10" d="M2053,1154.27c3.18,1.64,3.19,4.32,0,6l-33.24,17.31a13.9,13.9,0,0,1-11.45,0l-36-18.64c-3.18-1.64-3.22-4.3-.07-5.94l33.24-17.31a13.93,13.93,0,0,1,11.48,0Z" transform="translate(708.59 -34.01)"/><path class="cls-10" d="M1971.47,1168.33c3.18,1.64,3.19,4.31,0,6l-33.24,17.32a13.9,13.9,0,0,1-11.45,0l-36-18.63c-3.18-1.64-3.22-4.3-.07-6l33.24-17.31a14,14,0,0,1,11.48,0Z" transform="translate(708.59 -34.01)"/><path class="cls-10" d="M2292.49,1171c3.17,1.65,3.19,4.29,0,5.93l-33.24,17.32a13.89,13.89,0,0,1-11.43,0l-36-18.65c-3.15-1.63-3.19-4.29,0-5.93l33.24-17.32a13.91,13.91,0,0,1,11.42,0Z" transform="translate(708.59 -34.01)"/><path class="cls-10" d="M2188.51,1170.78c3.17,1.65,3.19,4.32,0,6l-33.24,17.31a13.86,13.86,0,0,1-11.45,0l-36-18.63c-3.17-1.65-3.22-4.31-.06-6l33.24-17.31a13.91,13.91,0,0,1,11.47,0Z" transform="translate(708.59 -34.01)"/><path class="cls-10" d="M2107.19,1182.34c3.17,1.64,3.17,4.3,0,5.94L2074,1205.6a13.87,13.87,0,0,1-11.42,0l-36-18.65c-3.15-1.63-3.19-4.29,0-5.93l33.24-17.32a14,14,0,0,1,11.45,0Z" transform="translate(708.59 -34.01)"/><path class="cls-10" d="M2025.71,1196.39c3.17,1.65,3.17,4.3,0,5.95l-33.24,17.31a13.79,13.79,0,0,1-11.42,0L1945,1201c-3.15-1.63-3.19-4.29,0-5.93l33.24-17.31a13.94,13.94,0,0,1,11.45,0Z" transform="translate(708.59 -34.01)"/><path class="cls-10" d="M2243.73,1199.36c3.17,1.64,3.19,4.31,0,6l-33.24,17.31a13.94,13.94,0,0,1-11.45,0l-36-18.64c-3.17-1.64-3.22-4.3-.06-5.94l33.24-17.32a14,14,0,0,1,11.47,0Z" transform="translate(708.59 -34.01)"/><path class="cls-10" d="M2348.43,1199.93c3.18,1.65,3.19,4.29,0,5.93l-33.24,17.32a13.89,13.89,0,0,1-11.43,0l-36-18.65c-3.18-1.64-3.2-4.29,0-5.93l33.24-17.32a13.87,13.87,0,0,1,11.42,0Z" transform="translate(708.59 -34.01)"/><path class="cls-10" d="M2161.43,1210.41c3.17,1.64,3.16,4.3,0,5.94l-33.24,17.32a13.87,13.87,0,0,1-11.42,0l-36-18.65c-3.18-1.65-3.19-4.29,0-5.94l33.24-17.31a13.9,13.9,0,0,1,11.45,0Z" transform="translate(708.59 -34.01)"/><path class="cls-10" d="M2080,1224.46c3.17,1.64,3.16,4.3,0,6l-33.24,17.31a13.89,13.89,0,0,1-11.43,0l-36-18.65c-3.18-1.64-3.2-4.29,0-5.93l33.24-17.31a13.9,13.9,0,0,1,11.45,0Z" transform="translate(708.59 -34.01)"/><path class="cls-10" d="M2298.94,1227.93c3.18,1.65,3.17,4.31,0,6l-33.24,17.31a13.82,13.82,0,0,1-11.43,0l-36-18.65c-3.15-1.63-3.19-4.29,0-5.93l33.24-17.31a13.94,13.94,0,0,1,11.45,0Z" transform="translate(708.59 -34.01)"/><path class="cls-10" d="M2404.37,1228.88c3.15,1.63,3.2,4.29,0,5.93l-33.24,17.32a13.91,13.91,0,0,1-11.42,0l-36-18.65c-3.18-1.65-3.19-4.29,0-5.93l33.24-17.32a13.87,13.87,0,0,1,11.42,0Z" transform="translate(708.59 -34.01)"/><path class="cls-10" d="M2025,1252.26c3.15,1.63,3.19,4.29,0,5.93l-33.24,17.32a13.93,13.93,0,0,1-11.43,0l-259.78-134.44c-3.17-1.64-3.19-4.28,0-5.93l33.24-17.31a13.89,13.89,0,0,1,11.43,0Z" transform="translate(708.59 -34.01)"/><path class="cls-10" d="M2354.16,1256.51c3.18,1.64,3.17,4.3,0,5.94l-33.24,17.32a13.89,13.89,0,0,1-11.43,0l-36-18.65c-3.15-1.63-3.19-4.29,0-5.93l33.23-17.32a14,14,0,0,1,11.46,0Z" transform="translate(708.59 -34.01)"/><path class="cls-10" d="M2409.38,1285.08c3.18,1.65,3.17,4.31,0,6l-33.23,17.31a13.82,13.82,0,0,1-11.43,0l-36-18.65c-3.17-1.64-3.19-4.28,0-5.93l33.23-17.31a13.9,13.9,0,0,1,11.45,0Z" transform="translate(708.59 -34.01)"/><path class="cls-10" d="M2516.23,1286.77c3.18,1.64,3.19,4.29,0,5.93L2483,1310a13.82,13.82,0,0,1-11.43,0l-92-47.6c-3.15-1.63-3.19-4.28,0-5.93l33.24-17.31a13.91,13.91,0,0,1,11.42,0Z" transform="translate(708.59 -34.01)"/><path class="cls-10" d="M2464.6,1313.66c3.18,1.64,3.17,4.3,0,5.94l-33.23,17.32a13.89,13.89,0,0,1-11.43,0l-36-18.65c-3.17-1.64-3.19-4.29,0-5.93l33.24-17.32a13.94,13.94,0,0,1,11.45,0Z" transform="translate(708.59 -34.01)"/></g><path class="cls-10" d="M2218.28,1093.49c3.18,1.64,3.19,4.28,0,5.93l-19.24,10a13.87,13.87,0,0,1-11.42,0l-36-18.65c-3.18-1.65-3.19-4.29,0-5.93l19.24-10a13.79,13.79,0,0,1,11.42,0Z" transform="translate(708.59 -34.01)"/><g class="cls-12"><path class="cls-10" d="M2386.08,1180.32c3.18,1.64,3.19,4.29,0,5.93l-19.24,10a13.79,13.79,0,0,1-11.42,0l-36-18.65c-3.18-1.64-3.19-4.29,0-5.93l19.24-10a13.87,13.87,0,0,1,11.42,0Z" transform="translate(708.59 -34.01)"/><path class="cls-10" d="M2442,1209.27c3.15,1.63,3.2,4.29,0,5.93l-19.23,10a13.93,13.93,0,0,1-11.43,0l-36-18.65c-3.17-1.64-3.19-4.29,0-5.93l19.24-10a13.89,13.89,0,0,1,11.43,0Z" transform="translate(708.59 -34.01)"/></g><path class="cls-10" d="M2497.94,1238.21c3.18,1.64,3.19,4.28,0,5.93l-19.24,10a13.87,13.87,0,0,1-11.42,0l-36-18.65c-3.15-1.63-3.19-4.29,0-5.93l19.24-10a13.87,13.87,0,0,1,11.42,0Z" transform="translate(708.59 -34.01)"/><path class="cls-10" d="M1912.44,1027.92c3.17,1.64,3.16,4.3,0,5.95l-33.24,17.31a13.89,13.89,0,0,1-11.43,0l-36-18.65c-3.17-1.64-3.19-4.29,0-5.93l33.24-17.32a13.94,13.94,0,0,1,11.45,0Z" transform="translate(708.59 -34.01)"/><path class="cls-10" d="M1967.66,1056.49c3.17,1.65,3.16,4.31,0,6l-33.24,17.31a13.82,13.82,0,0,1-11.43,0l-36-18.65c-3.17-1.64-3.19-4.28,0-5.93l33.24-17.31a13.9,13.9,0,0,1,11.45,0Z" transform="translate(708.59 -34.01)"/><path class="cls-10" d="M1890.26,1070.08c3.18,1.64,3.19,4.32,0,6l-33.24,17.31a13.9,13.9,0,0,1-11.45,0l-36-18.64c-3.18-1.64-3.22-4.3-.07-5.94l33.24-17.31a13.93,13.93,0,0,1,11.48,0Z" transform="translate(708.59 -34.01)"/><path class="cls-10" d="M1577.49,1020.69c3.18,1.65,3.2,4.29,0,5.94l-33.24,17.31a13.87,13.87,0,0,1-11.42,0l-36-18.65c-3.15-1.63-3.19-4.29,0-5.93L1530,1002a13.93,13.93,0,0,1,11.43,0Z" transform="translate(708.59 -34.01)"/><path class="cls-10" d="M1633.44,1049.64c3.17,1.65,3.19,4.29,0,5.93l-33.24,17.32a13.87,13.87,0,0,1-11.42,0l-36-18.65c-3.17-1.64-3.19-4.29,0-5.93L1586,1031a13.89,13.89,0,0,1,11.43,0Z" transform="translate(708.59 -34.01)"/><g class="cls-12"><path class="cls-10" d="M1781.81,1014c3.18,1.64,3.17,4.3,0,5.95l-33.24,17.31a13.87,13.87,0,0,1-11.42,0l-36-18.65c-3.18-1.64-3.19-4.29,0-5.93l33.24-17.32a13.94,13.94,0,0,1,11.45,0Z" transform="translate(708.59 -34.01)"/><path class="cls-10" d="M1698.89,1027.27c3.17,1.64,3.19,4.31,0,6l-33.24,17.32a13.9,13.9,0,0,1-11.45,0L1551,997.09c-3.15-1.63-3.19-4.29,0-5.93l33.24-17.32a14,14,0,0,1,11.45,0Z" transform="translate(708.59 -34.01)"/><path class="cls-10" d="M1836.05,1042c3.15,1.63,3.17,4.3,0,5.94l-33.24,17.32a13.91,13.91,0,0,1-11.42,0l-36-18.65c-3.18-1.65-3.19-4.29,0-5.93l33.24-17.32a13.9,13.9,0,0,1,11.45,0Z" transform="translate(708.59 -34.01)"/><path class="cls-10" d="M1754.57,1056.08c3.15,1.63,3.17,4.3,0,6l-33.24,17.31a13.91,13.91,0,0,1-11.42,0l-36-18.65c-3.18-1.64-3.19-4.29,0-5.93l33.24-17.31a13.9,13.9,0,0,1,11.45,0Z" transform="translate(708.59 -34.01)"/><path class="cls-10" d="M1808.78,1084.14c3.18,1.64,3.19,4.31,0,5.95l-33.24,17.32a13.9,13.9,0,0,1-11.45,0l-36-18.63c-3.18-1.64-3.22-4.3-.07-6l33.24-17.31a14,14,0,0,1,11.48,0Z" transform="translate(708.59 -34.01)"/></g><path class="cls-10" d="M1725.79,985c3.18,1.64,3.17,4.3,0,5.95l-33.24,17.31a13.87,13.87,0,0,1-11.42,0l-76-39.34c-3.15-1.63-3.19-4.29,0-5.94l33.23-17.31a14,14,0,0,1,11.46,0Z" transform="translate(708.59 -34.01)"/><path class="cls-10" d="M1857.22,999.34c3.17,1.65,3.16,4.31,0,5.95L1824,1022.6a13.82,13.82,0,0,1-11.43,0l-36-18.65c-3.14-1.63-3.19-4.28,0-5.93l33.24-17.31a14,14,0,0,1,11.45,0Z" transform="translate(708.59 -34.01)"/><path class="cls-10" d="M2136.84,1310.15c3.17,1.64,3.19,4.29,0,5.93l-33.23,17.31a13.82,13.82,0,0,1-11.43,0l-36-18.65c-3.17-1.64-3.19-4.29,0-5.93l33.23-17.31a13.82,13.82,0,0,1,11.43,0Z" transform="translate(708.59 -34.01)"/><path class="cls-10" d="M2170.84,1353c3.18,1.64,3.22,4.3.06,5.94l-8.9,4.64a13.9,13.9,0,0,1-11.45,0l-39.16-20.26c-3.17-1.64-3.19-4.29,0-5.93l8.9-4.64a13.89,13.89,0,0,1,11.43,0Z" transform="translate(708.59 -34.01)"/><path class="cls-10" d="M2242.64,1308.65c3.17,1.64,3.16,4.3,0,5.95l-33.24,17.31a13.89,13.89,0,0,1-11.43,0l-36-18.65c-3.18-1.64-3.2-4.29,0-5.93l33.24-17.32a13.94,13.94,0,0,1,11.45,0Z" transform="translate(708.59 -34.01)"/><path class="cls-10" d="M2413,1340.56c3.17,1.65,3.16,4.31,0,6l-33.24,17.31a13.79,13.79,0,0,1-11.42,0l-70.64-36.55c-3.17-1.64-3.19-4.29,0-5.93l33.24-17.31a13.9,13.9,0,0,1,11.45,0Z" transform="translate(708.59 -34.01)"/><path class="cls-10" d="M2358.81,1368.77c3.17,1.64,3.16,4.3,0,5.94L2325.58,1392a13.89,13.89,0,0,1-11.43,0l-98-50.7c-3.17-1.65-3.19-4.29,0-5.93l33.24-17.32a13.94,13.94,0,0,1,11.45,0Z" transform="translate(708.59 -34.01)"/><path class="cls-10" d="M2324.12,1294.6c3.17,1.64,3.16,4.3,0,5.94l-33.24,17.32a13.89,13.89,0,0,1-11.43,0l-36-18.65c-3.18-1.65-3.2-4.29,0-5.94l33.24-17.31a13.9,13.9,0,0,1,11.45,0Z" transform="translate(708.59 -34.01)"/><path class="cls-10" d="M2188.4,1280.58c3.17,1.65,3.16,4.3,0,6l-33.24,17.31a13.79,13.79,0,0,1-11.42,0l-36-18.65c-3.15-1.63-3.19-4.29,0-5.93l33.24-17.31a13.94,13.94,0,0,1,11.45,0Z" transform="translate(708.59 -34.01)"/><path class="cls-10" d="M2269.88,1266.53c3.17,1.64,3.17,4.3,0,5.94l-33.24,17.32a13.87,13.87,0,0,1-11.42,0l-36-18.65c-3.15-1.63-3.19-4.29,0-5.93l33.24-17.32a14,14,0,0,1,11.45,0Z" transform="translate(708.59 -34.01)"/><path class="cls-10" d="M2134.19,1252.53c3.14,1.63,3.16,4.3,0,5.94L2101,1275.79a13.93,13.93,0,0,1-11.43,0l-36-18.65c-3.18-1.64-3.22-4.3-.07-6l33.24-17.31a14,14,0,0,1,11.48,0Z" transform="translate(708.59 -34.01)"/><path class="cls-10" d="M2215.67,1238.47c3.15,1.63,3.16,4.31,0,6l-33.24,17.31a13.89,13.89,0,0,1-11.43,0l-36-18.65c-3.18-1.64-3.22-4.3-.07-5.94l33.24-17.31a13.93,13.93,0,0,1,11.48,0Z" transform="translate(708.59 -34.01)"/><path class="cls-10" d="M1863,1112.2c3.18,1.65,3.17,4.31,0,6l-33.24,17.31a13.79,13.79,0,0,1-11.42,0l-36-18.65c-3.18-1.64-3.19-4.28,0-5.93l33.24-17.31a13.9,13.9,0,0,1,11.45,0Z" transform="translate(708.59 -34.01)"/><path class="cls-10" d="M2012.83,1026.26c3.18,1.65,3.19,4.29,0,5.93l-33.24,17.32a13.89,13.89,0,0,1-11.43,0l-36-18.65c-3.17-1.64-3.19-4.29,0-5.93l33.24-17.32a13.87,13.87,0,0,1,11.42,0Z" transform="translate(708.59 -34.01)"/><path class="cls-10" d="M1689.38,1078.59c3.15,1.63,3.19,4.29,0,5.93l-33.24,17.32a13.93,13.93,0,0,1-11.43,0l-36-18.65c-3.17-1.64-3.19-4.29,0-5.93l33.23-17.32a13.89,13.89,0,0,1,11.43,0Z" transform="translate(708.59 -34.01)"/><path class="cls-10" d="M2225.57,1381.34c3.18,1.64,3.19,4.29,0,5.93l-8.9,4.64a13.89,13.89,0,0,1-11.43,0l-39.16-20.27c-3.18-1.64-3.19-4.29,0-5.93l8.9-4.64a13.89,13.89,0,0,1,11.43,0Z" transform="translate(708.59 -34.01)"/><path class="cls-10" d="M2280.3,1409.66c3.17,1.64,3.19,4.29,0,5.93l-8.9,4.64a13.89,13.89,0,0,1-11.43,0L2220.85,1400c-3.18-1.64-3.22-4.3-.06-5.94l8.9-4.64a13.94,13.94,0,0,1,11.45,0Z" transform="translate(708.59 -34.01)"/><path class="cls-10" d="M2249.91,1368.66c3.18,1.64,3.19,4.29,0,5.93l-8.9,4.64a13.89,13.89,0,0,1-11.43,0L2190.46,1359c-3.18-1.64-3.19-4.29,0-5.93l8.9-4.64a13.89,13.89,0,0,1,11.43,0Z" transform="translate(708.59 -34.01)"/><path class="cls-10" d="M1711.9,1172l-142.36,74.15a6.14,6.14,0,0,0,0,11.18l238.73,123.54a19.81,19.81,0,0,0,18,0l142.36-74.15a6.13,6.13,0,0,0,0-11.17L1730,1172A19.78,19.78,0,0,0,1711.9,1172Z" transform="translate(708.59 -34.01)"/><path class="cls-13" d="M2457.81,491c5,2.58,9,8.84,9,14l-.26,80.13c0,5.13-4.07,7.19-9.06,4.61l-36.64-19-18,22.66-17.78-41.17-76.42-39.55c-5-2.58-9-8.82-9-14l.25-80.13c0-5.13,4.08-7.21,9.06-4.63Z" transform="translate(708.59 -34.01)"/><path class="cls-6" d="M2410.93,508.34c3.79,2,6.83,6.7,6.82,10.59s-3.08,5.46-6.86,3.5-6.81-6.69-6.8-10.57S2407.17,506.39,2410.93,508.34Z" transform="translate(708.59 -34.01)"/><path class="cls-6" d="M2386.36,495.63c3.77,1.95,6.81,6.69,6.8,10.57s-3.08,5.46-6.85,3.51-6.82-6.7-6.81-10.58S2382.57,493.67,2386.36,495.63Z" transform="translate(708.59 -34.01)"/><path class="cls-6" d="M2361.77,482.9c3.77,2,6.83,6.7,6.81,10.58s-3.09,5.46-6.86,3.51-6.83-6.7-6.81-10.58S2358,481,2361.77,482.9Z" transform="translate(708.59 -34.01)"/><polygon class="cls-10" points="3210.83 667.83 3209.12 1207.02 2425.5 801.5 2427.2 262.32 3210.83 667.83"/><path class="cls-6" d="M2383.3,679.35c6.66,3.45,12.06,11.82,12,18.69s-5.46,9.67-12.12,6.22-12.09-11.84-12.07-18.74S2376.6,675.88,2383.3,679.35Z" transform="translate(708.59 -34.01)"/><g class="cls-12"><polygon class="cls-8" points="2857.78 873.89 2857.71 895.45 2701.08 814.39 2701.14 792.84 2857.78 873.89"/><polygon class="cls-8" points="3049.22 1091.95 3049.18 1104.39 2700.73 924.07 2700.77 911.63 3049.22 1091.95"/><polygon class="cls-8" points="2958.03 925.77 2957.96 947.32 2883.25 908.66 2883.32 887.11 2958.03 925.77"/><polygon class="cls-8" points="3190.05 1137.3 3190.01 1149.74 2700.82 896.59 2700.86 884.15 3190.05 1137.3"/><polygon class="cls-8" points="3190.14 1109.86 3190.1 1122.29 2700.9 869.14 2700.94 856.7 3190.14 1109.86"/><path class="cls-6" d="M2110.28,538.57c22.49,11.63,40.61,39.81,40.54,62.93S2132.5,634,2110,622.34s-40.57-39.79-40.5-62.91S2087.83,527,2110.28,538.57Zm-13,55.47,34.11-2.62-34-37.88-.13,40.5" transform="translate(708.59 -34.01)"/><polygon class="cls-14" points="2805.97 519.54 2839.94 557.42 2805.84 560.03 2805.97 519.54"/><polygon class="cls-8" points="3190.23 1082.37 3190.19 1094.81 2700.99 841.66 2701.03 829.22 3190.23 1082.37"/><path class="cls-6" d="M2392.39,838.12c16.83,8.71,34.2,21.39,47.26,35.74l-12.8,25c-12.37-12.88-24-22.06-34.95-27.72-12.35-6.39-16.32-4.76-16.33-.32-.05,15.51,69.35,38.5,69.2,86.1-.07,23.66-19.67,33.5-58.57,13.37-21-10.85-42.11-27.16-54.61-41.58l13.7-24.73c11.81,13.34,27.59,26.12,41.4,33.27,12,6.21,16.32,5.83,16.33,1.4.05-16.23-69.36-39-69.2-87.22C2333.89,827.47,2353.49,818,2392.39,838.12Z" transform="translate(708.59 -34.01)"/><path class="cls-8" d="M2247.5,734.72l235,121.59-.64,202.1-489.2-253.15.64-202.1,233.29,120.72Z" transform="translate(708.59 -34.01)"/><path class="cls-13" d="M2248,590.16l234.95,121.59-.39,123L2247.57,713.17Zm151.88,178.11,64,33.13-46.29-76.9-32.11,19.86-52.11-86.53-67,41.38,104.56,54.11,28.9,14.95m-16.54-88.92c-6.7-3.47-12.13-.69-12.15,6.17s5.37,15.27,12.07,18.74,12.09.67,12.12-6.22-5.38-15.24-12-18.69" transform="translate(708.59 -34.01)"/></g><path class="cls-15" d="M1993.72,458.59,2227,579.32l-.39,123L1993.33,581.61ZM2110,622.34c22.49,11.63,40.73,2.28,40.81-20.84s-18.05-51.3-40.54-62.93-40.69-2.27-40.77,20.86,18,51.29,40.5,62.91" transform="translate(708.59 -34.01)"/><path class="cls-6" d="M1874.15,415.87c6.66,3.45,12.06,11.83,12,18.69s-5.46,9.67-12.12,6.22S1862,428.94,1862,422,1867.45,412.41,1874.15,415.87Z" transform="translate(708.59 -34.01)"/><g class="cls-12"><polygon class="cls-15" points="2538.8 702.53 2579.36 769.91 2604.36 754.42 2640.43 814.29 2590.56 788.49 2568.08 776.85 2486.64 734.71 2538.8 702.53"/><path class="cls-11" d="M1737.35,470.73l235,121.58-1.12,354.92-235-121.59ZM1952,917.39l.53-168.18-196.4-101.64-.53,168.19L1952,917.39m3.83-211.83,0-12.44L1756.3,589.85l0,12.44,199.55,103.27m.09-27.45,0-12.43L1756.38,562.41l0,12.43L1955.9,678.11m.09-27.48,0-12.44L1756.47,534.92l0,12.44L1956,650.63m-199.4-152.12-.07,21.58,95.18,49.26.07-21.59-95.18-49.25m-.38,118.83,0,12.43,107.95,55.87,0-12.44-108-55.86M1877.31,561l-.07,21.58,59.26,30.67.07-21.58L1877.31,561" transform="translate(708.59 -34.01)"/><path class="cls-14" d="M1869.09,753.25c5.2,2.69,9.42,9.24,9.4,14.61s-4.26,7.49-9.47,4.8-9.39-9.19-9.37-14.56S1863.92,750.57,1869.09,753.25Z" transform="translate(708.59 -34.01)"/><polygon class="cls-10" points="2572.75 639.2 2572.71 651.63 2464.76 595.77 2464.8 583.33 2572.75 639.2"/><path class="cls-6" d="M1756.11,647.57l196.4,101.64L1952,917.39l-196.4-101.63ZM1882,822.49l49.86,25.8-36.06-59.86-25,15.48-40.56-67.38L1778,768.71l81.44,42.14L1882,822.49m-12.88-69.24c-5.17-2.68-9.42-.51-9.44,4.85s4.2,11.88,9.37,14.56,9.46.56,9.47-4.8-4.2-11.92-9.4-14.61" transform="translate(708.59 -34.01)"/><polygon class="cls-10" points="2560.36 513.76 2560.29 535.34 2465.11 486.09 2465.18 464.5 2560.36 513.76"/><polygon class="cls-10" points="2664.45 659.12 2664.41 671.56 2464.85 568.29 2464.89 555.85 2664.45 659.12"/><polygon class="cls-10" points="2664.53 631.67 2664.5 644.11 2464.94 540.84 2464.98 528.4 2664.53 631.67"/><polygon class="cls-10" points="2664.62 604.19 2664.58 616.63 2465.02 513.36 2465.06 500.92 2664.62 604.19"/><polygon class="cls-10" points="2645.17 557.64 2645.1 579.23 2585.83 548.56 2585.9 526.97 2645.17 557.64"/><path class="cls-13" d="M1737.81,326.16l235,121.59-.39,123L1737.42,449.18ZM1890.69,504.8l64,33.13L1908.42,461l-32.15,19.85-52.07-86.51-67,41.36,104.59,54.12,28.9,15m-16.54-88.93c-6.7-3.46-12.13-.69-12.15,6.17s5.37,15.28,12.07,18.74,12.09.68,12.12-6.22-5.38-15.24-12-18.69" transform="translate(708.59 -34.01)"/><polygon class="cls-6" points="2532.8 360.35 2584.87 446.86 2617.01 427.02 2663.3 503.92 2599.28 470.79 2570.38 455.83 2465.79 401.71 2532.8 360.35"/></g><polygon class="cls-6" points="3041.95 623.83 3094.05 710.36 3126.16 690.5 3172.45 767.4 3108.43 734.27 3079.53 719.31 2974.98 665.21 3041.95 623.83"/><path class="cls-15" d="M2746,893.42c6.57,3.4,11.89,11.65,11.87,18.42l-1.11,350.05c0,6.75-5.37,9.48-11.94,6.08l-195-100.93c-6.57-3.41-11.89-11.65-11.86-18.4l.4-129.16-68.71-76.56,69-5.32.44-139c0-6.77,5.37-9.5,11.94-6.1Z" transform="translate(708.59 -34.01)"/><path class="cls-6" d="M2662.25,1098.51c10.45,11.59,17.47,26.84,17.43,40.16,0,15.21-9.31,23.38-22.3,21.87l.09-28.18c0-7.17-5.59-15.88-12.55-19.48s-12.58-.7-12.61,6.46l-.09,28.18c-12.95-11.92-22.14-29.63-22.09-44.85,0-13.31,7.14-21.25,17.63-22l.36-114c-16-15.29-27.28-37.46-27.22-56.53s11.39-29.6,27.49-28.22l-.11,34.72c0,9.81,7.67,21.75,17.18,26.67s17.28,1,17.31-8.82l.11-34.73c16,15.27,27.28,37.47,27.22,56.54s-11.39,29.57-27.49,28.22Zm-9.7-11.34.32-100.93c0-4.28-3.34-9.5-7.51-11.66s-7.53-.41-7.54,3.87l-.32,100.93c0,4.28,3.34,9.48,7.49,11.63s7.55.44,7.56-3.84" transform="translate(708.59 -34.01)"/><path class="cls-13" d="M2645.36,974.58c4.17,2.16,7.52,7.38,7.51,11.66l-.32,100.93c0,4.28-3.39,6-7.56,3.84s-7.5-7.35-7.49-11.63l.32-100.93C2637.83,974.17,2641.2,972.43,2645.36,974.58Z" transform="translate(708.59 -34.01)"/><path class="cls-15" d="M1566.45,782.27c3.82-2,6.91-.37,6.92,3.56l.66,207.55c0,3.94-3.06,8.74-6.88,10.72l-289,149.53c-3.82,2-6.91.37-6.92-3.57l-.66-207.55c0-3.94,3.06-8.73,6.88-10.71Z" transform="translate(708.59 -34.01)"/><path class="cls-13" d="M1556.13,817.29c3.82-2,6.94-.38,6.95,3.56l.54,169.16c0,3.94-3.09,8.72-6.91,10.7l-268.23,138.8c-3.82,2-6.91.4-6.92-3.54L1281,966.81c0-3.94,3.06-8.73,6.88-10.71Z" transform="translate(708.59 -34.01)"/><path class="cls-16" d="M1286.81,935.49c3-1.54,5.38-.32,5.39,2.76s-2.37,6.77-5.36,8.32-5.35.27-5.36-2.78S1283.85,937,1286.81,935.49Z" transform="translate(708.59 -34.01)"/><path class="cls-17" d="M1304.34,926.42c3-1.53,5.38-.32,5.39,2.75s-2.4,6.8-5.36,8.32-5.38.29-5.39-2.75S1301.35,928,1304.34,926.42Z" transform="translate(708.59 -34.01)"/><path class="cls-18" d="M1321.84,917.36c3-1.54,5.38-.32,5.39,2.76s-2.37,6.77-5.36,8.32-5.38.28-5.39-2.76S1318.89,918.89,1321.84,917.36Z" transform="translate(708.59 -34.01)"/><polygon class="cls-6" points="2109.69 901.7 2109.8 934.96 2052.33 985.07 2109.93 975.62 2110.03 1008.88 2013.06 1022.8 2012.95 988 2109.69 901.7"/><polygon class="cls-6" points="2151.78 879.92 2248.72 865.99 2248.83 900.79 2152.12 987.1 2152.01 953.84 2209.49 903.74 2151.89 913.18 2151.78 879.92"/><path class="cls-6" d="M2213,758.48c52.27,27,96.85,83.57,114.85,140.19l9.74,5c33.42,17.3,60.42,59.21,60.31,93.61s-27.28,48.31-60.71,31l-26.81-13.87-75.06-38.85L2196,955.27,2114.33,913l-37.55-19.42c-23.81-12.33-43-42.19-43-66.71s19.44-34.42,43.25-22.1l12.31,6.37C2095,748.71,2148.28,725,2213,758.48Z" transform="translate(708.59 -34.01)"/><polygon class="cls-13" points="2924.86 806.95 2999.86 938.55 2961.09 918.49 2960.89 980.55 2887.85 942.75 2888.05 880.69 2849.25 860.61 2924.86 806.95"/><path class="cls-19" d="M451.65,704.06c1.23,0,2.45.05,3.67.1A129.36,129.36,0,0,1,660.78,571.73,129.38,129.38,0,0,1,904.31,599a129.35,129.35,0,0,1,171,105.14l1.14,0a98.81,98.81,0,0,1,86,50.09,11.88,11.88,0,0,1-10.3,17.76H376a11.88,11.88,0,0,1-10.3-17.76A98.82,98.82,0,0,1,451.65,704.06Z" transform="translate(708.59 -34.01)"/><polygon class="cls-8" points="1474.69 764.52 1562.13 613.06 1649.57 764.52 1591.3 764.52 1591.3 953.63 1532.96 953.63 1532.96 764.52 1474.69 764.52"/><polygon class="cls-20" points="1470.65 802.18 1383.21 953.63 1295.77 802.18 1354.04 802.18 1354.04 613.06 1412.38 613.06 1412.38 802.18 1470.65 802.18"/></g></svg>