<svg id="Layer_1" data-name="Layer 1" xmlns="http://www.w3.org/2000/svg" viewBox="0 0 495 495"><defs><style>.cls-1{fill:#d8b6d6;}.cls-2{fill:#fff;}</style></defs><circle class="cls-1" cx="247.5" cy="247.5" r="247.5"/><g id="Outlined_Mnemonics_Logos" data-name="Outlined Mnemonics Logos"><g id="Ps"><path class="cls-2" d="M104.39,356.9V139.17c0-1.59.69-2.39,2-2.39,3.63,0,6.94-.05,11.94-.17l16.19-.34,18.4-.34q9.71-.17,19.25-.17,25.89,0,43.62,6.47a75.91,75.91,0,0,1,28.45,17.38,66.73,66.73,0,0,1,15.5,24,79.71,79.71,0,0,1,4.77,27.43q0,27.27-12.61,45a71.22,71.22,0,0,1-34.07,25.73c-14.31,5.34-30.21,7.15-47.7,7.15q-7.5,0-10.57-.17t-9.2-.17v68a2.71,2.71,0,0,1-2.3,3.07,3.22,3.22,0,0,1-.76,0H106.78C105.19,359.63,104.39,358.72,104.39,356.9Zm46-179.23v71q4.43.34,8.18.34h11.25a80,80,0,0,0,24.36-3.89,36.79,36.79,0,0,0,17.38-11.25q6.64-7.83,6.64-21.8a34.41,34.41,0,0,0-4.94-18.74,31.78,31.78,0,0,0-14.82-12.1A63.11,63.11,0,0,0,173.58,177q-8.18,0-14.48.17t-8.69.51Z" transform="translate(-2.5 -2.5)"/><path class="cls-2" d="M396.31,235.77A79.87,79.87,0,0,0,376,228.62a107.86,107.86,0,0,0-23.68-2.73,44.11,44.11,0,0,0-12.78,1.54,11.41,11.41,0,0,0-6.64,4.26,10.67,10.67,0,0,0-1.7,5.79,9,9,0,0,0,2,5.45,23,23,0,0,0,7.16,5.62,141.72,141.72,0,0,0,15,7A148.34,148.34,0,0,1,388,271a49.5,49.5,0,0,1,16.69,17.55,46.84,46.84,0,0,1,5,21.81,49,49,0,0,1-8.18,28.11,53.88,53.88,0,0,1-23.68,18.91q-15.51,6.81-38.34,6.81a138.51,138.51,0,0,1-28.79-2.72A91.85,91.85,0,0,1,289,354.69a4.4,4.4,0,0,1-2.38-4.09V313.8a2,2,0,0,1,.85-1.87,1.65,1.65,0,0,1,1.87.17,91.1,91.1,0,0,0,26.24,10.39,108.19,108.19,0,0,0,24.88,3.24q11.91,0,17.54-3.07a9.63,9.63,0,0,0,5.63-8.86q0-4.43-5.12-8.52T337.7,295.4a125.3,125.3,0,0,1-30.16-15.33,52,52,0,0,1-16-17.89,46.91,46.91,0,0,1-4.94-21.64A48.89,48.89,0,0,1,293.74,215a52,52,0,0,1,22.15-19.42q15-7.5,37.48-7.5a166.89,166.89,0,0,1,26.24,1.87,68.62,68.62,0,0,1,18.27,4.95,3.09,3.09,0,0,1,2,1.87,9.17,9.17,0,0,1,.34,2.55v34.42a2.28,2.28,0,0,1-1,2A3.28,3.28,0,0,1,396.31,235.77Z" transform="translate(-2.5 -2.5)"/></g></g></svg>