<svg id="Layer_1" data-name="Layer 1" xmlns="http://www.w3.org/2000/svg" viewBox="0 0 495 495"><defs><style>.cls-1{fill:#d8b6d6;}.cls-2,.cls-3{fill:#fff;}.cls-2{fill-rule:evenodd;}</style></defs><circle class="cls-1" cx="247.5" cy="247.5" r="247.5"/><path class="cls-2" d="M405.91,284.85V304.4h35.32c7.23,0,19.66-5.29,20.09-20.09v-7.56c0-12.64-10.37-20.09-20.09-20.09H423.62v-9.08H458.5V227.92H425c-8.65,0-20.2,7.13-20.2,20.42v6.8c0,13.29,11.45,20.1,20.2,20.1,24.3.1-5.84,0,16.63,0v9.5m-225-4.64s18.9-1.62,18.9-26-22.9-26.68-22.9-26.68H171.4v77h20.74v-18.6l17.93,18.58h30.68Zm-8-15.77H192.14V246.72h16.64s4.64,1.73,4.64,8.75-4.75,8.86-4.75,8.86Zm78.09-36.41H265.7c-15,0-20.09,13.61-20.09,20.09V304.4h21.06V290.9h19.77v13.5h20.42V248c0-16.41-14.91-20.09-20.1-20.09Zm-.32,41.16H266.56V250.39s0-4.21,6.59-4.21h7.24c5.83,0,5.94,4.21,5.94,4.21v18.69Z"/><rect class="cls-3" x="316.47" y="227.92" width="21.93" height="76.48"/><polygon class="cls-2" points="369.18 284.63 369.18 227.92 347.36 227.92 347.36 284.63 347.36 304.4 369.18 304.4 398.67 304.4 398.67 284.63 369.18 284.63"/><path class="cls-2" d="M41.24,304.4h85.34S110.26,230,164.27,199.84c11.78-5.73,49.26-27.11,110.61,18.25,1.95-1.62,3.78-2.91,3.78-2.91S222.5,159.12,160,165.38c-31.45,2.84-70.1,31.44-92.78,69.24S41.24,304.4,41.24,304.4Z"/><path class="cls-2" d="M41.24,304.4h85.34S110.26,230,164.27,199.84c11.78-5.73,49.26-27.11,110.61,18.25,1.95-1.62,3.78-2.91,3.78-2.91S222.5,159.12,160,165.38c-31.45,2.84-70.1,31.44-92.78,69.24S41.24,304.4,41.24,304.4Z"/><path class="cls-2" d="M41.24,304.4h85.34S110.26,230,164.27,199.84c11.78-5.73,49.26-27.11,110.61,18.25,1.95-1.62,3.78-2.91,3.78-2.91S222.5,159.12,160,165.38c-31.54,2.84-70.21,31.44-92.89,69.24S41.24,304.4,41.24,304.4ZM219,171.4l.46-7.18c-1-.54-3.67-1.83-10.48-3.78l-.43,7.13c3.53,1.16,7,2.46,10.45,3.86Z"/><path class="cls-2" d="M208.78,194.33l-.44,6.81a60.15,60.15,0,0,1,10.7,1.29l.43-6.7A78.58,78.58,0,0,0,208.78,194.33Zm-40-33.7h1.08L167.7,154a87.62,87.62,0,0,0-10.37.65l2,6.37a90.87,90.87,0,0,1,9.48-.43ZM174,200.38l2.49,7.45a67.59,67.59,0,0,1,9.4-3.78l-2.35-7.13a78.27,78.27,0,0,0-9.51,3.46ZM125,172l-4.87-7.45c-2.7,1.4-5.5,2.91-8.42,4.64l5,7.56C119.5,175,122.15,173.38,125,172Zm22.14,48.61,5.18,7.78a59.27,59.27,0,0,1,6.38-7.67l-4.86-7.35a58.9,58.9,0,0,0-6.7,7.24Zm-15.66,34.78,8.75,6.91a86,86,0,0,1,2.31-12.63l-7.77-6.16a100,100,0,0,0-3.29,11.88ZM84.12,204.05l-7.62-6.69c-2.81,2.7-5.51,5.4-8,8.1l8.32,7.13A110,110,0,0,1,84.12,204.05ZM51.5,252.34,39.08,247.8c-2,4.64-4.32,10-5.4,13l12.42,4.54C47.5,261.62,49.78,256.33,51.5,252.34Zm78.32,30.46a109,109,0,0,0,1.29,13.61l13,4.64a138.39,138.39,0,0,1-2.59-14Z"/></svg>