<svg id="Layer_1" data-name="Layer 1" xmlns="http://www.w3.org/2000/svg" viewBox="0 0 495 495"><defs><style>.cls-1{fill:#d8b6d6;}.cls-2{fill:#fff;}</style></defs><circle class="cls-1" cx="247.5" cy="247.5" r="247.5"/><path class="cls-2" d="M68.66,250A181.38,181.38,0,0,0,170.86,413.2l-86.5-237A180.49,180.49,0,0,0,68.66,250Z" transform="translate(-2.5 -2.5)"/><path class="cls-2" d="M372.41,240.84c0-22.41-8.05-37.93-15-50-9.19-14.94-17.81-27.58-17.81-42.52,0-16.67,12.64-32.19,30.45-32.19.8,0,1.57.1,2.35.15a181.29,181.29,0,0,0-274,34.13c4.26.13,8.27.22,11.67.22,19,0,48.33-2.31,48.33-2.31,9.78-.57,10.93,13.79,1.16,14.94,0,0-9.82,1.16-20.75,1.73l66,196.42,39.69-119L216.36,165c-9.77-.57-19-1.72-19-1.72-9.77-.58-8.63-15.52,1.15-14.94,0,0,29.94,2.3,47.76,2.3,19,0,48.33-2.3,48.33-2.3,9.78-.58,10.93,13.78,1.16,14.94,0,0-9.84,1.15-20.75,1.72l65.53,194.94,18.09-60.45C366.45,274.38,372.41,256.37,372.41,240.84Z" transform="translate(-2.5 -2.5)"/><path class="cls-2" d="M253.18,265.86,198.77,424a181.48,181.48,0,0,0,111.44-2.9,17.17,17.17,0,0,1-1.29-2.49Z" transform="translate(-2.5 -2.5)"/><path class="cls-2" d="M409.11,163a139.21,139.21,0,0,1,1.22,18.65c0,18.4-3.43,39.09-13.78,65l-55.4,160.15a181.35,181.35,0,0,0,68-243.75Z" transform="translate(-2.5 -2.5)"/><path class="cls-2" d="M250,38.62C133.44,38.62,38.61,133.44,38.61,250S133.44,461.38,250,461.38,461.39,366.56,461.39,250,366.55,38.62,250,38.62Zm0,413.08C138.78,451.7,48.3,361.21,48.3,250S138.78,48.31,250,48.31,451.68,138.78,451.68,250,361.2,451.7,250,451.7Z" transform="translate(-2.5 -2.5)"/></svg>