<svg id="Layer_1" data-name="Layer 1" xmlns="http://www.w3.org/2000/svg" viewBox="0 0 495 495"><defs><style>.cls-1{fill:#d8b6d6;}.cls-2{fill:#fff;}</style></defs><circle class="cls-1" cx="247.5" cy="247.5" r="247.5"/><g id="Outlined_Mnemonics_Logos" data-name="Outlined Mnemonics Logos"><g id="Ae"><path class="cls-2" d="M205.79,304.78h-77l-15.66,48.76a3.92,3.92,0,0,1-4,3h-39c-2.22,0-3-1.23-2.33-3.67l66.66-191.19c.67-2,1.33-4,2-6.51a71.18,71.18,0,0,0,1.33-13.5,2.07,2.07,0,0,1,1.75-2.33,2,2,0,0,1,.59,0h53c1.55,0,2.44.56,2.67,1.67L271.45,353.2c.66,2.23,0,3.34-2,3.34H226.12a3.09,3.09,0,0,1-3.34-2.34Zm-65-41.11h52.66q-2-6.66-4.66-15t-5.67-17.83l-6-19q-3-9.5-5.5-18.33t-4.5-16.16h-.33a269.27,269.27,0,0,1-7,26.66q-4.66,15-9.5,30.67T140.79,263.67Z" transform="translate(-2.5 -2.5)"/><path class="cls-2" d="M394.1,285.81H328.44a46.81,46.81,0,0,0,6.34,18.36,34.21,34.21,0,0,0,15.16,12.5,63.48,63.48,0,0,0,26.5,5.19,120.42,120.42,0,0,0,21.5-2.36,78.86,78.86,0,0,0,18.48-4.82c1.11-.88,1.67-.33,1.67,1.67V348a5,5,0,0,1-.5,2.5,4.8,4.8,0,0,1-1.51,1.5,84.59,84.59,0,0,1-20.64,6.15,145.78,145.78,0,0,1-29.33,2.5q-23.67,0-39.67-7.33a70.61,70.61,0,0,1-26-19.66,77,77,0,0,1-14.34-27.17,107.23,107.23,0,0,1-4.33-30.16A104.87,104.87,0,0,1,287,243.51a85.48,85.48,0,0,1,15.5-28.33,74.38,74.38,0,0,1,25-19.67c9.78-4.77,21.33-6.49,34.67-6.49a75.23,75.23,0,0,1,32.16,6.34,56.73,56.73,0,0,1,21.83,16.48,75.78,75.78,0,0,1,12.33,23.5,83.46,83.46,0,0,1,4,25.33q0,7.33-.5,13.34t-.83,8.66a3,3,0,0,1-3,2.67c-1.33,0-3.61.16-6.83.5s-7.23.55-12,.66S399.44,285.81,394.1,285.81Zm-65.66-30.37H372.1q8,0,11.84-.16a11.67,11.67,0,0,0,4.83-1.61v-2a27,27,0,0,0-1.33-7.66,27.23,27.23,0,0,0-27-19,29,29,0,0,0-27.5,15.66A48.43,48.43,0,0,0,328.44,255.44Z" transform="translate(-2.5 -2.5)"/></g></g></svg>