<?xml version="1.0" encoding="utf-8"?>
<!-- Generator: Adobe Illustrator 26.0.2, SVG Export Plug-In . SVG Version: 6.00 Build 0)  -->
<svg version="1.1" id="Layer_1" xmlns="http://www.w3.org/2000/svg" xmlns:xlink="http://www.w3.org/1999/xlink" x="0px" y="0px"
	 viewBox="0 0 500 500" style="enable-background:new 0 0 500 500;" xml:space="preserve">
<style type="text/css">
	.st0{fill:#D8B6D6;}
	.st1{display:none;}
	.st2{display:inline;fill:#FFFFFF;}
	.st3{display:none;fill-rule:evenodd;clip-rule:evenodd;fill:#FFFFFF;}
	.st4{display:inline;}
	.st5{fill:#FFFFFF;}
	.st6{fill:#FFFFFF;stroke:#FFFFFF;stroke-width:3;stroke-miterlimit:10;}
	.st7{font-family:'MicrosoftSansSerif';}
	.st8{font-size:105.2957px;}
</style>
<circle class="st0" cx="250" cy="250" r="247.5"/>
<g class="st1">
	<path class="st2" d="M291.75,299.46c10.66,17.4,24.52,30.19,49.04,30.19c20.6,0,33.75-10.29,33.75-24.52
		c0-17.04-13.52-23.08-36.19-33l-12.43-5.33c-35.87-15.28-59.7-34.43-59.7-74.9c0-37.28,28.41-65.66,72.8-65.66
		c31.6,0,54.33,11,70.7,39.8l-38.71,24.85c-8.52-15.28-17.72-21.3-31.99-21.3c-14.56,0-23.79,9.24-23.79,21.3
		c0,14.91,9.24,20.95,30.56,30.19l12.43,5.32c42.23,18.11,66.08,36.58,66.08,78.09c0,44.75-35.16,69.27-82.37,69.27
		c-46.16,0-75.99-22-90.58-50.83L291.75,299.46z M116.15,303.77c7.81,13.85,14.91,25.57,31.99,25.57c16.33,0,26.63-6.39,26.63-31.24
		V129.08h49.71v169.69c0,51.47-30.18,74.9-74.23,74.9c-39.8,0-62.85-20.6-74.57-45.4L116.15,303.77z"/>
</g>
<path class="st3" d="M250,62.34c-106.3,0-192.4,86.1-192.4,192.4c0,85.14,55.08,157.05,131.56,182.54
	c9.62,1.68,13.23-4.09,13.23-9.14c0-4.57-0.24-19.72-0.24-35.84c-48.34,8.9-60.85-11.78-64.7-22.61
	c-2.16-5.53-11.54-22.61-19.72-27.18c-6.73-3.61-16.35-12.51-0.24-12.75c15.15-0.24,25.97,13.95,29.58,19.72
	c17.32,29.1,44.97,20.92,56.04,15.87c1.68-12.51,6.73-20.92,12.27-25.73c-42.81-4.81-87.54-21.4-87.54-95
	c0-20.92,7.46-38.24,19.72-51.71c-1.92-4.81-8.66-24.53,1.92-50.99c0,0,16.11-5.05,52.91,19.72c15.39-4.33,31.75-6.49,48.1-6.49
	s32.71,2.16,48.1,6.49c36.8-25.01,52.91-19.72,52.91-19.72c10.58,26.46,3.85,46.18,1.92,50.99c12.27,13.47,19.72,30.54,19.72,51.71
	c0,73.84-44.97,90.19-87.78,95c6.97,6.01,12.99,17.56,12.99,35.59c0,25.73-0.24,46.42-0.24,52.91c0,5.05,3.61,11.06,13.23,9.14
	c76-25.49,131.08-97.65,131.08-182.54C442.4,148.44,356.3,62.34,250,62.34z"/>
<g id="Outlined_Mnemonics_Logos" class="st1">
	<g id="Ae" class="st4">
		<path class="st5" d="M205.79,304.78h-76.99l-15.66,48.75c-0.44,1.83-2.12,3.09-4,3h-39c-2.22,0-3-1.22-2.33-3.67l66.66-191.19
			c0.67-2,1.33-3.95,2-6.51c0.87-4.45,1.32-8.97,1.33-13.5c-0.16-1.13,0.62-2.17,1.75-2.33c0.19-0.03,0.39-0.03,0.58,0h52.99
			c1.55,0,2.44,0.56,2.67,1.67l75.66,212.2c0.67,2.22,0,3.33-2,3.33h-43.33c-1.54,0.17-2.97-0.83-3.33-2.33L205.79,304.78z
			 M140.79,263.67h52.66c-1.33-4.44-2.89-9.44-4.67-15c-1.78-5.55-3.67-11.5-5.67-17.83c-2-6.33-4-12.67-6-19
			c-2-6.33-3.83-12.44-5.5-18.33c-1.67-5.88-3.17-11.27-4.5-16.16h-0.33c-1.88,9-4.21,17.9-7,26.66c-3.11,10-6.28,20.22-9.5,30.66
			C147.07,245.12,143.9,254.79,140.79,263.67z"/>
		<path class="st5" d="M394.1,285.81h-65.66c0.8,6.5,2.96,12.75,6.33,18.36c3.73,5.56,9,9.9,15.16,12.5
			c8.36,3.62,17.39,5.39,26.5,5.19c7.22-0.14,14.42-0.93,21.5-2.36c6.33-0.85,12.54-2.47,18.48-4.82c1.11-0.88,1.67-0.33,1.67,1.67
			v31.66c0.05,0.86-0.12,1.72-0.5,2.5c-0.38,0.61-0.89,1.12-1.5,1.5c-6.59,2.92-13.53,4.99-20.65,6.15
			c-9.67,1.82-19.49,2.65-29.33,2.5c-15.78,0-29-2.44-39.66-7.33c-10.08-4.44-18.98-11.17-26-19.66c-6.55-8-11.43-17.24-14.33-27.16
			c-2.88-9.8-4.34-19.95-4.33-30.16c-0.03-11.15,1.71-22.23,5.17-32.83c3.33-10.34,8.58-19.95,15.5-28.33
			c6.82-8.28,15.35-14.99,25-19.66c9.77-4.78,21.33-6.49,34.66-6.49c11.06-0.28,22.04,1.88,32.16,6.33
			c8.51,3.63,16.01,9.29,21.83,16.49c5.46,7.05,9.64,15,12.33,23.5c2.63,8.19,3.98,16.73,4,25.33c0,4.89-0.17,9.33-0.5,13.33
			c-0.33,4-0.61,6.89-0.83,8.67c-0.18,1.52-1.47,2.67-3,2.67c-1.33,0-3.61,0.17-6.83,0.5c-3.22,0.33-7.22,0.56-12,0.67
			C404.49,286.62,399.44,285.81,394.1,285.81z M328.44,255.44h43.66c5.33,0,9.28-0.06,11.83-0.17c1.71-0.17,3.36-0.72,4.83-1.6v-2
			c-0.07-2.61-0.52-5.19-1.33-7.67c-3.7-11.69-14.75-19.46-27-19c-11.46-0.69-22.25,5.45-27.5,15.66
			C330.66,245.32,329.14,250.31,328.44,255.44z"/>
	</g>
</g>
<text transform="matrix(0.9673 0 0 1 37.7695 283.8049)" class="st6 st7 st8">AutoCAD</text>
</svg>
