<svg id="Layer_1" data-name="Layer 1" xmlns="http://www.w3.org/2000/svg" viewBox="0 0 495 495"><defs><style>.cls-1{fill:#d8b6d6;}.cls-2{fill:#fff;}</style></defs><circle class="cls-1" cx="247.5" cy="247.5" r="247.5"/><path class="cls-2" d="M143.76,68.73h16.55V85.14h15.26V68.73h16.56V118.4H175.57V101.84H160.46V118.4h-16.7M214,85.29H199.4V68.73h45.85V85.29H230.57V118.4H214m38.51-49.67h17.35l10.65,17.49,10.65-17.49h17.35V118.4H292V93.78l-11.58,17.85L268.79,93.78V118.4H252.52m64.21-49.67h16.55V102h23.47V118.4h-40" transform="translate(-2.5 -2.5)"/><path class="cls-2" d="M119.43,141.14l23.75,266.62,106.6,29.51,107-29.66,23.75-266.47Zm217,249.34L250,414.59V380.84l-67.09-18.72-4.6-51.32h32.82l2.3,26.13,36.5,9.77.07,0V294.46h-.14v-.07h-73l-8.93-98.76H250V163H356.75Z" transform="translate(-2.5 -2.5)"/><polygon class="cls-2" points="201.29 225.81 204.31 259.28 247.36 259.28 247.5 259.28 247.5 225.81 247.36 225.81 201.29 225.81"/><polygon class="cls-2" points="247.5 193.13 329.27 193.13 326.25 225.81 247.5 225.81 247.5 259.28 323.3 259.28 314.3 359.62 247.5 378.15 247.5 378.34 247.5 412.09 333.88 387.98 354.25 160.53 247.5 160.53 247.5 193.13"/><polygon class="cls-2" points="287.67 291.96 247.5 291.96 247.5 344.18 283.85 334.43 287.67 291.96"/></svg>