<svg id="Layer_1" data-name="Layer 1" xmlns="http://www.w3.org/2000/svg" viewBox="0 0 495 495"><defs><style>.cls-1{fill:#d8b6d6;}.cls-2{fill:#fff;}</style></defs><circle class="cls-1" cx="247.5" cy="247.5" r="247.5"/><g id="Outlined_Mnemonics_Logos" data-name="Outlined Mnemonics Logos"><g id="Ai"><path class="cls-2" d="M248.6,305.75H171.93l-15.6,48.47a3.91,3.91,0,0,1-4,3H113.5c-2.21,0-3-1.21-2.32-3.65l66.39-191.2c.66-2,1.33-4.26,2-6.8a71.38,71.38,0,0,0,1.33-13.44,2.06,2.06,0,0,1,1.74-2.33,1.88,1.88,0,0,1,.58,0H236c1.55,0,2.43.56,2.66,1.66L314,353.88q1,3.33-2,3.32H268.85a3.07,3.07,0,0,1-3.32-2.32Zm-64.72-41.82h52.44q-2-6.65-4.64-14.94T226,231.23l-6-18.92q-3-9.47-5.48-18.26T210.1,178h-.33a270.56,270.56,0,0,1-7,26.55q-4.65,14.94-9.46,30.54t-9.46,28.88Z" transform="translate(-2.5 -2.5)"/><path class="cls-2" d="M358.81,175a24.1,24.1,0,0,1-18.26-7.3,26.26,26.26,0,0,1-7-18.93,24.32,24.32,0,0,1,7.47-18.42,25.63,25.63,0,0,1,18.42-7.13q12,0,18.75,7.13A25.61,25.61,0,0,1,385,148.74a26,26,0,0,1-7.14,18.93A25.48,25.48,0,0,1,358.81,175ZM335.9,353.88V195.22c0-2,.88-3,2.66-3h40.83c1.76,0,2.65,1,2.65,3V353.88c0,2.22-.88,3.33-2.65,3.32h-40.5C336.9,357.2,335.9,356.1,335.9,353.88Z" transform="translate(-2.5 -2.5)"/></g></g></svg>