<svg id="Layer_1" data-name="Layer 1" xmlns="http://www.w3.org/2000/svg" viewBox="0 0 495 495"><defs><style>.cls-1{fill:#d8b6d6;}.cls-2{fill:#fff;}</style></defs><circle class="cls-1" cx="247.5" cy="247.5" r="247.5"/><g id="Outlined_Mnemonics_Logos" data-name="Outlined Mnemonics Logos"><g id="Id"><path class="cls-2" d="M177.43,147.66v219c0,2.35-1.07,3.42-3,3.42H132.6c-1.92,0-2.77-1.07-2.77-3.42v-219c0-1.92,1.07-2.77,3-2.77h41.62a2.41,2.41,0,0,1,2.77,2.13A.78.78,0,0,1,177.43,147.66Z" transform="translate(-2.5 -2.5)"/><path class="cls-2" d="M300.37,373.49a106.27,106.27,0,0,1-45.89-9.6,74.51,74.51,0,0,1-32.23-29c-7.9-13-11.74-29.25-11.74-48.67a87.7,87.7,0,0,1,11.74-45,88.61,88.61,0,0,1,33.94-33.08c14.94-8.33,32.87-12.38,54-12.38a38.67,38.67,0,0,1,4.48.21c1.93.22,4.06.22,6.62.43V128.88c0-1.49.64-2.35,2.14-2.35h43.33a1.91,1.91,0,0,1,2.13,1.5V331.66c0,3.84.21,8.11.43,12.8.42,4.48.64,8.75.85,12.38a3.47,3.47,0,0,1-2.13,3.42,163,163,0,0,1-34.8,10.24A186.48,186.48,0,0,1,300.37,373.49Zm20.92-42.69V236.88a55.4,55.4,0,0,0-5.76-1.06c-2.35-.22-4.7-.43-7-.43a52.69,52.69,0,0,0-24.12,5.55,47.87,47.87,0,0,0-18.14,15.8c-4.69,6.83-7,16-7,27.1a59.42,59.42,0,0,0,3.63,22,41.65,41.65,0,0,0,9.6,15.15,37,37,0,0,0,14.52,8.54,55.88,55.88,0,0,0,17.71,2.78c3.2,0,6.19-.22,9-.43A18.13,18.13,0,0,0,321.29,330.8Z" transform="translate(-2.5 -2.5)"/></g></g></svg>