<svg id="Layer_1" data-name="Layer 1" xmlns="http://www.w3.org/2000/svg" viewBox="0 0 495 495"><defs><style>.cls-1{fill:#d8b6d6;}.cls-2{fill:#fff;}</style></defs><circle class="cls-1" cx="247.5" cy="247.5" r="247.5"/><path class="cls-2" d="M291.75,299.46c10.66,17.4,24.52,30.19,49,30.19,20.59,0,33.75-10.3,33.75-24.52,0-17.05-13.52-23.08-36.19-33l-12.42-5.33c-35.87-15.28-59.7-34.43-59.7-74.9,0-37.28,28.4-65.66,72.79-65.66,31.61,0,54.33,11,70.7,39.8L371,190.89c-8.53-15.28-17.72-21.3-32-21.3-14.56,0-23.78,9.24-23.78,21.3,0,14.91,9.23,21,30.56,30.19l12.43,5.32c42.23,18.11,66.08,36.58,66.08,78.09,0,44.75-35.16,69.27-82.37,69.27-46.17,0-76-22-90.58-50.83Zm-175.6,4.31c7.81,13.85,14.92,25.56,32,25.56,16.33,0,26.63-6.39,26.63-31.23v-169h49.71V298.77c0,51.47-30.18,74.9-74.23,74.9-39.8,0-62.85-20.6-74.57-45.41Z" transform="translate(-2.5 -2.5)"/></svg>