<svg id="Layer_1" data-name="Layer 1" xmlns="http://www.w3.org/2000/svg" viewBox="0 0 953.7 715.79"><defs><style>.cls-1,.cls-10,.cls-11,.cls-12,.cls-20,.cls-8,.cls-9{fill:#fbc343;}.cls-2{fill:#fff;}.cls-17,.cls-3{fill:#102048;}.cls-4{fill:#c6eae9;}.cls-15,.cls-5{fill:#ff6d6d;}.cls-6{fill:#f3ff00;}.cls-10,.cls-11,.cls-12,.cls-21,.cls-7,.cls-8,.cls-9{isolation:isolate;}.cls-10,.cls-11,.cls-12,.cls-8,.cls-9{font-size:43.46px;}.cls-10,.cls-11,.cls-12,.cls-21,.cls-8,.cls-9{font-family:ArialRoundedMTBold, Arial Rounded MT Bold;}.cls-8{letter-spacing:-0.04em;}.cls-9{letter-spacing:-0.01em;}.cls-10{letter-spacing:-0.02em;}.cls-12{letter-spacing:0.1em;}.cls-13{fill:#39e3d8;}.cls-13,.cls-14,.cls-15,.cls-17,.cls-18,.cls-19,.cls-20{fill-rule:evenodd;}.cls-14,.cls-21{fill:#ffeec7;}.cls-16{fill:#708cd5;}.cls-18{fill:#fce6c0;}.cls-19{fill:#029e94;}.cls-21{font-size:201.1px;}</style></defs><g id="Objects"><rect class="cls-1" x="471.81" y="563.62" width="50.09" height="84.52"/><path class="cls-2" d="M463.72,562.68v83.78a1,1,0,0,0,2,0V562.68a1,1,0,0,0-2,0Z" transform="translate(0.01)"/><path class="cls-2" d="M466.25,564.24h51.12a1,1,0,1,0,0-2H466.25a1,1,0,0,0,0,2Z" transform="translate(0.01)"/><path class="cls-2" d="M465.16,647.55c17.39,0,34.79-.09,52.18-.09a1,1,0,1,0,0-2c-17.39,0-34.79.09-52.18.09a1,1,0,0,0,0,2Z" transform="translate(0.01)"/><path class="cls-2" d="M516.37,563.84v82.71a1,1,0,0,0,2,0V563.84a1,1,0,0,0-2,0Z" transform="translate(0.01)"/><path class="cls-2" d="M505.49,563.84v83a1,1,0,0,0,2,0v-83a1,1,0,1,0-2,0Z" transform="translate(0.01)"/><path class="cls-2" d="M473.17,647.24v12.6a1,1,0,0,0,2,0v-12.6a1,1,0,0,0-2,0Z" transform="translate(0.01)"/><path class="cls-2" d="M475.37,660.55c1-1.18,2.27-2.11,3.36-3.2a1,1,0,0,0,0-1.41h0a1,1,0,0,0-1.41,0c-1.09,1.1-2.35,2-3.36,3.2a1.1,1.1,0,0,0-.29.71,1,1,0,0,0,1.7.71Z" transform="translate(0.01)"/><path class="cls-2" d="M477.62,657.47a17.17,17.17,0,0,0,2.88,3.08,1.1,1.1,0,0,0,.71.29,1,1,0,0,0,.7-1.71,16.35,16.35,0,0,1-2.43-2.49l.16.2c-.1-.12-.2-.25-.29-.38a1,1,0,0,0-1.73,1Z" transform="translate(0.01)"/><path class="cls-2" d="M482.75,659.84a100.72,100.72,0,0,1,.69-12.64,1,1,0,0,0-2,0,100.72,100.72,0,0,0-.69,12.64,1,1,0,1,0,2,0Z" transform="translate(0.01)"/><path class="cls-3" d="M725.18,171.56a9.41,9.41,0,1,1-9.41-9.41h0A9.41,9.41,0,0,1,725.18,171.56Z" transform="translate(0.01)"/><path class="cls-4" d="M621.76,332.15s-3.39-3.91-3.27-4.91c1.23-12.42,12.76-99.73,95.3-95.36,88.84,4.7,74.61,117,74.61,117S695.84,394.86,621.76,332.15Z" transform="translate(0.01)"/><polyline class="cls-1" points="694.07 306.8 690.68 255.61 719.82 255.62 705.68 296.44 721.58 298.9 701.36 331.82 700.36 307.37 692.75 306.8"/><path class="cls-5" d="M529.67,358.41s66.25,49.51,154.23,60.18,161.16-7.23,177.67-19.3c0,0-6.86,26.58-61.23,39.75S574.62,440,529.67,358.41Z" transform="translate(0.01)"/><path class="cls-2" d="M614.26,317.59c5.73,8.67,14.07,15.23,23.16,20.1,10.21,5.46,21.39,9,32.67,11.51a215.55,215.55,0,0,0,35.79,4.58,229.8,229.8,0,0,0,32.35-.65c6.2-.58,12.31-1.76,18.42-2.9a168.77,168.77,0,0,0,22.15-5.32c1.67-.55,3.32-1.15,4.93-1.81,1.18-.48.66-2.42-.53-1.93a118.82,118.82,0,0,1-21.17,6c-3.62.75-7.25,1.41-10.89,2.06-3.12.55-6.24,1.19-9.39,1.55a218.34,218.34,0,0,1-31,1.2,220,220,0,0,1-35.19-3.74,137.16,137.16,0,0,1-33-10.24c-9.28-4.4-18.11-10.33-24.46-18.51-.74-1-1.44-1.94-2.11-3s-2.44-.07-1.72,1Z" transform="translate(0.01)"/><path class="cls-2" d="M595.58,325.41c7,11.85,17.49,21.13,29.29,28,12.84,7.51,27.1,12.43,41.54,15.79a246.1,246.1,0,0,0,45.62,6,264.73,264.73,0,0,0,41.47-1.38c8-.93,15.8-2.67,23.63-4.38a201.6,201.6,0,0,0,28.73-8c2.09-.8,4.15-1.66,6.18-2.6,1.16-.54.15-2.26-1-1.72-8.76,4.05-18.18,6.6-27.54,8.82-4.71,1.12-9.45,2.13-14.2,3.11-3.93.81-7.86,1.72-11.85,2.26a269.08,269.08,0,0,1-84.57-2.72c-14.51-2.94-28.89-7.31-42.06-14.16-12-6.24-23.13-14.7-30.88-25.92-.93-1.34-1.8-2.72-2.63-4.12a1,1,0,0,0-1.72,1Z" transform="translate(0.01)"/><path class="cls-2" d="M528.56,352.24a282.77,282.77,0,0,0,62.2,36.47c23,9.74,47.24,16.31,71.8,20.76,13.64,2.47,27.39,4.31,41.17,5.73,15.11,1.56,30.26,2.62,45.45,2.7,23,.12,46.14-1.83,68.53-7.27A191.44,191.44,0,0,0,858.16,396c1.14-.57,2.27-1.16,3.41-1.75s.13-2.33-1-1.73a185.75,185.75,0,0,1-37.25,14.62c-21,5.77-42.82,8.24-64.57,8.71-29,.62-58.15-2.16-86.74-6.76-24.81-4-49.37-10-72.82-19.08a278.49,278.49,0,0,1-62.38-34.08c-2.44-1.76-4.85-3.57-7.23-5.4-1-.78-2,.95-1,1.73Z" transform="translate(0.01)"/><path class="cls-2" d="M616.08,317.35c3-19.72,4.9-40.81,16.72-57.6,10.57-15,26.37-26.23,43.61-32.27s36.82-7.1,54-.37a88.31,88.31,0,0,1,43.88,38.33A72.3,72.3,0,0,1,780.22,279a75,75,0,0,1,2.91,16.21,238.14,238.14,0,0,1,.14,37.77q-.33,4.59-.8,9.16c-.13,1.27,1.87,1.26,2,0a257.17,257.17,0,0,0,1.21-38.75A121.88,121.88,0,0,0,783.86,285a68.72,68.72,0,0,0-4.59-14.14c-8.17-18.38-23.63-33.76-41.57-42.7-17.08-8.52-36.71-9.58-55-4.71a93.59,93.59,0,0,0-47,29.37,76.5,76.5,0,0,0-8,11.17,71.77,71.77,0,0,0-6,14.13c-3.24,10.2-4.85,20.82-6.41,31.38q-.52,3.66-1.08,7.31c-.2,1.26,1.73,1.8,1.92.53Z" transform="translate(0.01)"/><path class="cls-2" d="M615,317.55c-5.49.47-10.54,2.45-15.59,4.52-5.48,2.24-11,4.34-16.5,6.53q-17.14,6.87-34.19,14l-19.32,8c-1.17.48-.66,2.42.53,1.92,22.35-9.35,44.75-18.57,67.29-27.49,5.76-2.28,11.47-5,17.74-5.53,1.27-.11,1.28-2.11,0-2Z" transform="translate(0.01)"/><path class="cls-2" d="M784.74,342.24c5.29,1.58,9.82,4.71,14.35,7.77,4.89,3.3,9.85,6.5,14.71,9.85,10.19,7,20.19,14.32,30.25,21.54,5.64,4,11.3,8.06,17,12,1.06.74,2.06-1,1-1.72-10.26-7.06-20.33-14.4-30.45-21.66s-20.08-14.09-30.29-20.9c-5.11-3.41-10.11-7-16.07-8.8a1,1,0,1,0-.53,1.93h0Z" transform="translate(0.01)"/><path class="cls-2" d="M528.81,352.11c9.56,20.37,26.56,35.89,45.56,47.26,20,11.91,42.23,19.77,64.68,25.56,21.32,5.51,43,8.95,64.87,11.55,13.63,1.62,27.32,2.87,41.06,2.67A199.36,199.36,0,0,0,791.1,433a203.31,203.31,0,0,0,36-12.69c11-5.1,22.22-11.37,30.38-20.48a39.07,39.07,0,0,0,4.46-6,1,1,0,0,0-1.72-1c-6,9.93-16.55,16.67-26.53,22a187.15,187.15,0,0,1-34.8,14,199,199,0,0,1-45.08,8,253,253,0,0,1-41-1.35,520.54,520.54,0,0,1-65.55-10.58c-22.15-5.22-44.11-12.29-64.27-23-19.4-10.29-37.48-24.36-48.69-43.58-1.37-2.35-2.63-4.77-3.78-7.24-.55-1.16-2.27-.15-1.73,1Z" transform="translate(0.01)"/><path class="cls-2" d="M627.64,327.84c1.85-11.16,4.05-22.3,7.89-33,.44-1.22-1.49-1.74-1.93-.53-3.84,10.66-6,21.81-7.89,33C625.5,328.57,627.43,329.11,627.64,327.84Z" transform="translate(0.01)"/><path class="cls-2" d="M638.3,334.88a103.9,103.9,0,0,1,6.89-30.05c.47-1.2-1.47-1.72-1.93-.53a105.42,105.42,0,0,0-7,30.58c-.1,1.28,1.9,1.28,2,0Z" transform="translate(0.01)"/><path class="cls-2" d="M647.37,341c.48-4.74.68-9.65,2.74-14,.55-1.16-1.17-2.17-1.72-1-2.23,4.73-2.5,9.92-3,15-.13,1.28,1.87,1.27,2,0Z" transform="translate(0.01)"/><path class="cls-2" d="M653.28,343.24a55.22,55.22,0,0,1,1.77-7.06,1,1,0,0,0-.7-1.23h0a1,1,0,0,0-1.23.7h0a55.22,55.22,0,0,0-1.77,7.06,1,1,0,0,0,1.93.53Z" transform="translate(0.01)"/><path class="cls-2" d="M661.7,345.24a12.18,12.18,0,0,1,.16-1.48l.09-.71v-.13l.06-.36a24.17,24.17,0,0,1,.59-2.81,1,1,0,1,0-1.93-.54,37,37,0,0,0-1,6,1,1,0,0,0,2,0Z" transform="translate(0.01)"/><path class="cls-2" d="M621,322.06a87.37,87.37,0,0,1,2.93-18.39,1,1,0,1,0-1.93-.54,90.53,90.53,0,0,0-3,18.93c-.07,1.28,1.93,1.28,2,0Z" transform="translate(0.01)"/><path class="cls-2" d="M777.92,339.75a1,1,0,1,0-1-1A1,1,0,0,0,777.92,339.75Z" transform="translate(0.01)"/><path class="cls-2" d="M778.14,334.24a1,1,0,1,0-1-1A1,1,0,0,0,778.14,334.24Z" transform="translate(0.01)"/><path class="cls-2" d="M778.2,327a1,1,0,1,0-1-1A1,1,0,0,0,778.2,327Z" transform="translate(0.01)"/><path class="cls-2" d="M748.52,249a72.72,72.72,0,0,1,26.33,37,1,1,0,0,0,1.93-.53,75,75,0,0,0-27.25-38.19c-1-.76-2,1-1,1.72Z" transform="translate(0.01)"/><path class="cls-2" d="M731.12,237.24a70.13,70.13,0,0,1,8.21,5.2,1,1,0,1,0,1.41-1.41,71.84,71.84,0,0,0-8.61-5.51,1,1,0,0,0-1,1.72Z" transform="translate(0.01)"/><path class="cls-2" d="M810.7,365.64c8.78,7.21,18.34,13.44,26.78,21.09.95.86,2.37-.55,1.42-1.41-8.45-7.65-18-13.88-26.79-21.1-1-.81-2.41.6-1.41,1.42Z" transform="translate(0.01)"/><path class="cls-2" d="M841.47,389.81c1,.86,2,1.77,3.06,2.62a1.12,1.12,0,0,0,.71.29,1,1,0,0,0,.71-.29,1,1,0,0,0,0-1.41h0c-1-.85-2-1.76-3.06-2.62a1.1,1.1,0,0,0-.71-.29,1,1,0,0,0-.71.29,1,1,0,0,0,0,1.41Z" transform="translate(0.01)"/><path class="cls-2" d="M553.79,376c16.52,16.66,38.23,26.26,60.3,33.26,6.26,2,12.58,3.76,18.91,5.49a1,1,0,1,0,.53-1.93h0c-22-6-44.37-12.8-63.39-25.81a103.3,103.3,0,0,1-14.94-12.43c-.9-.91-2.32.5-1.41,1.42Z" transform="translate(0.01)"/><path class="cls-2" d="M665.37,421.53A89.59,89.59,0,0,0,679,422.94a1,1,0,0,0,0-2,87.21,87.21,0,0,1-13-1.34c-1.26-.22-1.8,1.7-.54,1.93Z" transform="translate(0.01)"/><path class="cls-2" d="M620.37,323.82a21.13,21.13,0,0,0-15.07,13.3c-.45,1.2,1.49,1.73,1.93.53a19.12,19.12,0,0,1,13.67-11.91c1.26-.27.73-2.2-.53-1.92Z" transform="translate(0.01)"/><path class="cls-2" d="M630.51,334a29.43,29.43,0,0,0-9.32,15,1,1,0,0,0,1.92.53,27.53,27.53,0,0,1,8.81-14.14c1-.82-.42-2.23-1.41-1.42Z" transform="translate(0.01)"/><path class="cls-2" d="M648.65,342.79c-3,5.43-5.26,12-4.42,18.23a1,1,0,0,0,2,0c-.8-5.94,1.34-12.07,4.15-17.22.61-1.13-1.11-2.14-1.73-1Z" transform="translate(0.01)"/><path class="cls-2" d="M667.63,348.6a27.51,27.51,0,0,1,.26,9.23c-.35,3.06-1.06,6.38-2.93,8.91-.77,1,1,2,1.73,1,2-2.74,2.77-6.35,3.17-9.66a29.46,29.46,0,0,0-.3-10c-.28-1.26-2.21-.73-1.93.53Z" transform="translate(0.01)"/><path class="cls-2" d="M687,352.38c-.68,6.5-1.46,13.34.47,19.71a1,1,0,1,0,1.93-.53h0c-1.87-6.19-1.06-12.87-.4-19.18.13-1.28-1.87-1.27-2,0Z" transform="translate(0.01)"/><path class="cls-2" d="M705.61,353.78c3.36,5.9,2.91,13.44,2.24,20-.13,1.28,1.87,1.27,2,0,.71-6.9,1-14.74-2.51-21a1,1,0,0,0-1.73,1Z" transform="translate(0.01)"/><path class="cls-2" d="M725,353.87c-.69,6.71-1.26,14.38,3.2,20,.79,1,2.2-.42,1.41-1.42-4-5.1-3.23-12.54-2.61-18.58C727.15,352.59,725.15,352.6,725,353.87Z" transform="translate(0.01)"/><path class="cls-2" d="M738.56,353.11a57.76,57.76,0,0,1,5.16,11,29.14,29.14,0,0,1,1.2,6,8.16,8.16,0,0,1,.14,1.56,7.38,7.38,0,0,1-.19.78,1.15,1.15,0,0,0,1,1.32h0c1.26.24,1.8-1.69.53-1.93l.48.88v-.15c.06-.05.08-.32.1-.39a4.43,4.43,0,0,0,0-1.36c-.1-1-.18-2-.31-2.95a28.29,28.29,0,0,0-1.47-5.65A63.52,63.52,0,0,0,740.28,352a1,1,0,0,0-1.73,1Z" transform="translate(0.01)"/><path class="cls-2" d="M761.05,349c-.6,8.62,5.24,15.3,11.3,20.64,1,.84,2.38-.57,1.41-1.42-5.67-5-11.27-11.12-10.71-19.22.09-1.28-1.91-1.28-2,0Z" transform="translate(0.01)"/><path class="cls-2" d="M775.15,347.08c3.7.67,6.2,4.31,7.89,7.37a29.58,29.58,0,0,1,3.68,10.91c.13,1.27,2.13,1.28,2,0a31.61,31.61,0,0,0-4.08-12.12c-1.92-3.42-4.84-7.32-8.95-8.07-1.26-.22-1.8,1.7-.54,1.93Z" transform="translate(0.01)"/><path class="cls-2" d="M772,355.53l.25.32-.16-.21c.7.91,1.34,1.87,2.06,2.76a1,1,0,0,0,1.71-.7,1.19,1.19,0,0,0-.3-.71l-.22-.28.16.21c-.71-.93-1.36-1.9-2.09-2.81a1,1,0,0,0-.71-.29,1,1,0,0,0-1,1A1.19,1.19,0,0,0,772,355.53Z" transform="translate(0.01)"/><path class="cls-2" d="M732.49,361.24c.16.43.27.86.41,1.29a7.4,7.4,0,0,0,.65,1.5,1,1,0,0,0,1.37.36h0a1,1,0,0,0,.36-1.37h0a3.87,3.87,0,0,1-.33-.64l.1.24c-.26-.62-.4-1.28-.63-1.91a1.12,1.12,0,0,0-.46-.59,1,1,0,0,0-1.47,1.12Z" transform="translate(0.01)"/><path class="cls-2" d="M696.17,361c0,.31.09.63.13,1v-.27c.07.58.14,1.16.2,1.74a1.1,1.1,0,0,0,.29.71,1.05,1.05,0,0,0,.71.29,1,1,0,0,0,1-1c-.1-1-.23-2-.37-3a1,1,0,0,0-.46-.59,1,1,0,0,0-1.37.36l-.1.23a1,1,0,0,0,0,.54Z" transform="translate(0.01)"/><path class="cls-2" d="M656.2,353.89c-.12,1.15-.24,2.29-.35,3.44a.93.93,0,0,0,.29.7,1,1,0,0,0,.71.3,1,1,0,0,0,.7-.3,1.14,1.14,0,0,0,.3-.7c.11-1.15.23-2.29.35-3.44a1,1,0,0,0-1-1,1,1,0,0,0-.71.29A1.18,1.18,0,0,0,656.2,353.89Z" transform="translate(0.01)"/><path class="cls-2" d="M617.84,334.7c-.2.31-.31.66-.51,1a.7.7,0,0,0-.11.37.9.9,0,0,0,0,.4.75.75,0,0,0,.18.34.84.84,0,0,0,.28.25l.24.1a1,1,0,0,0,.53,0l.24-.1a1,1,0,0,0,.36-.36c.19-.3.31-.65.5-1a.63.63,0,0,0,.12-.37.68.68,0,0,0,0-.4.75.75,0,0,0-.18-.34.77.77,0,0,0-.28-.26l-.24-.1a1,1,0,0,0-.53,0l-.24.1a1,1,0,0,0-.36.36Z" transform="translate(0.01)"/><path class="cls-2" d="M704.77,221.55c1.44-6.58,1.33-13.46,2.06-20.14.77-7,2-14,3.42-20.95.25-1.25-1.68-1.79-1.93-.53-1.34,6.81-2.59,13.64-3.38,20.53-.4,3.42-.69,6.85-.91,10.29A69.48,69.48,0,0,1,702.84,221C702.57,222.28,704.5,222.81,704.77,221.55Z" transform="translate(0.01)"/><path class="cls-2" d="M717.08,221.13c.31-7.56-.12-15.11-.2-22.66,0-3.45,0-6.9.25-10.34.22-2.89.55-5.87-.09-8.72-.28-1.26-2.21-.73-1.93.53.64,2.84.19,5.89,0,8.76-.24,3.41-.25,6.83-.2,10.25.09,7.39.5,14.78.19,22.18-.06,1.28,1.94,1.28,2,0Z" transform="translate(0.01)"/><path class="cls-2" d="M709.63,179.8c3-.06,6.27,0,9-1.51s4-4.55,4.15-7.63c.23-6.14-4-12.73-10.6-12.84-9.11-.15-12.31,11.28-8.82,18.27a7.8,7.8,0,0,0,4.17,3.94,8.71,8.71,0,0,0,6.74-.75c1.16-.56.15-2.28-1-1.73-2.82,1.35-5.92,1.17-7.71-1.62a12.29,12.29,0,0,1-1.24-9.17c.72-3.08,2.62-6,5.85-6.74,5.37-1.28,9.56,3.23,10.45,8.16.5,2.77.1,6.34-2.43,8s-5.73,1.52-8.55,1.58a1,1,0,0,0,0,2Z" transform="translate(0.01)"/><path class="cls-2" d="M707.47,164.52a6.9,6.9,0,0,0,2.41,7.87,1,1,0,1,0,1.18-1.62l-.18-.1-.12-.09-.12-.1-.27-.24a4.12,4.12,0,0,1-.28-.31h0c0-.07-.09-.13-.13-.19a5.75,5.75,0,0,1-.42-.77c-.07-.15.08.22,0-.06a.87.87,0,0,1-.07-.17,1.94,1.94,0,0,0-.14-.45l-.09-.4v-.23h0a6.61,6.61,0,0,1,0-.89v-.71a5.61,5.61,0,0,1,.25-.89,1,1,0,0,0-1.93-.54Z" transform="translate(0.01)"/><path class="cls-2" d="M690.09,175.88a5.28,5.28,0,0,0,1.49-.52c.45-.22.88-.49,1.32-.75a1.1,1.1,0,0,0,.46-.6,1.09,1.09,0,0,0-.1-.77,1,1,0,0,0-1.37-.35,14.55,14.55,0,0,1-1.65.89l.24-.1a4.22,4.22,0,0,1-.92.27,1,1,0,0,0-.7,1.23h0a1.06,1.06,0,0,0,.46.6l.24.1a1.19,1.19,0,0,0,.53,0Z" transform="translate(0.01)"/><path class="cls-2" d="M689,151.31a12.43,12.43,0,0,0,3.67,2.15,1.14,1.14,0,0,0,.77.1,1.1,1.1,0,0,0,.6-.46,1,1,0,0,0-.36-1.37h0c-.6-.27-1.21-.53-1.8-.84-.29-.15-.58-.32-.86-.5l-.2-.14-.09-.07c-.1-.07.17.13.07.06a3.82,3.82,0,0,1-.39-.35,1,1,0,1,0-1.41,1.42Z" transform="translate(0.01)"/><path class="cls-2" d="M707.37,138.11a10.88,10.88,0,0,1,1.1,2.61c.3,1,.55,1.93.86,2.88a1,1,0,0,0,1.93-.53h0a28.47,28.47,0,0,0-2.16-6,1,1,0,0,0-1.77.93.25.25,0,0,0,0,.07Z" transform="translate(0.01)"/><path class="cls-2" d="M729.69,148.61c1.46-.83,3-1.51,4.52-2.19a1,1,0,0,0-1-1.73c-1.53.68-3.06,1.37-4.52,2.19a1,1,0,0,0,1,1.73Z" transform="translate(0.01)"/><path class="cls-2" d="M734.45,168.24a11.86,11.86,0,0,0,2.79.21h1.93l.35.06a1,1,0,1,0,.7-1.87l-.17,0a10.57,10.57,0,0,0-2.63-.19h-1.26l-.67-.05h-.12l-.39-.07a1,1,0,1,0-.7,1.87l.17,0Z" transform="translate(0.01)"/><path class="cls-2" d="M727.46,180a16.48,16.48,0,0,0,3.65,2.35,1,1,0,0,0,1-1.73,14.15,14.15,0,0,1-1.71-.93c-.29-.18-.56-.36-.84-.56l-.2-.15-.11-.08h0l-.43-.35a1,1,0,0,0-.71-.3,1,1,0,0,0-1,1,1,1,0,0,0,.3.72Z" transform="translate(0.01)"/><path class="cls-2" d="M686.37,253.24c5.52.52,11,1.34,16.59,1.33,4.9,0,10.21-1.93,14.93,0,1.19.49,1.71-1.44.53-1.93-4.8-2-10-.14-15-.09-5.73.06-11.4-.8-17.08-1.33-1.29-.12-1.28,1.88,0,2Z" transform="translate(0.01)"/><path class="cls-2" d="M716.21,253.36c-2.74,13.82-9.42,26.3-15,39.09-.51,1.16,1.21,2.18,1.73,1,5.69-12.93,12.47-25.57,15.24-39.56.24-1.26-1.68-1.8-1.93-.53Z" transform="translate(0.01)"/><path class="cls-2" d="M703.43,294.24c4.41.87,9-1.71,13.23.09a1,1,0,0,0,1.23-.7h0a1,1,0,0,0-.69-1.23,12.5,12.5,0,0,0-6.72-.48c-2.15.3-4.36.82-6.52.4-1.26-.25-1.79,1.67-.53,1.92Z" transform="translate(0.01)"/><path class="cls-2" d="M717.07,293.47c-5.73,11.61-13.82,21.85-19.55,33.45-.57,1.15,1.16,2.17,1.73,1,5.73-11.6,13.82-21.85,19.55-33.45C719.37,293.32,717.64,292.3,717.07,293.47Z" transform="translate(0.01)"/><path class="cls-2" d="M699.07,328.43c-.13-8.15,1-16.3-.16-24.42-.17-1.27-2.1-.73-1.93.53,1.1,7.92,0,15.94.09,23.89a1,1,0,0,0,2,0Z" transform="translate(0.01)"/><path class="cls-2" d="M697,303c-2.1,0-4.19-.24-6.29-.21a1,1,0,0,0,0,2c2.1,0,4.19.25,6.29.21a1,1,0,0,0,0-2Z" transform="translate(0.01)"/><path class="cls-2" d="M690.37,303.78c-.34-17.21-2-34.36-2.3-51.57a1,1,0,0,0-2,0c.33,17.21,2,34.36,2.3,51.57a1,1,0,0,0,2,0Z" transform="translate(0.01)"/><path class="cls-4" d="M855.25,606.56c-2.39-5-7.28-9.56-11.94-13.25-2-1.36-3.94-2.73-5.8-4.19l-2.09-1.66c-4.36-3.09-9.48-4.58-14.56-6.57-3,.27-5.42.49-7.8,4.88-5.73,10.63,6.74,23.14,14,29,5.21,4.2,19.85,16.57,25.27,5.7a14.43,14.43,0,0,0,1.14-3.1c1.85-2,2.67-5,2.24-8.59A14.12,14.12,0,0,0,855.25,606.56Z" transform="translate(0.01)"/><path class="cls-4" d="M587.68,619.81s-.45-58.27,4.16-59.25,82.43,3.35,82.43,3.35l69.27,2.48s7.27-2.12,6,13.61-4.72,84.5-4.72,84.5,2.36,9.65-10.81,9.06l-137.44-6.22s-11.31-.74-10.72-10.42S587.68,619.81,587.68,619.81Z" transform="translate(0.01)"/><path class="cls-5" d="M743.48,576.48c1.25-13.47-6-11.66-6-11.66l-69.27-2.12s-77.83-3.72-82.43-2.88c-1.91.35-.95,3.48-1.52,13.64l141.11,5.66S743,582.12,743.48,576.48Z" transform="translate(0.01)"/><path class="cls-5" d="M739,656.74l-159.23-7.06c-.35,7.37-.19,2.74-.45,7.06-.6,9.68,10.72,10.41,10.72,10.41l137.46,6.22c13.16.6,10.8-9,10.8-9A48.76,48.76,0,0,0,739,656.74Z" transform="translate(0.01)"/><path class="cls-6" d="M582.37,561.57q-1.7,37.27-3.38,74.54-.47,10.36-.94,20.72a1,1,0,0,0,2,0q1.69-37.17,3.37-74.34.48-10.46,1-20.92c.06-1.29-1.94-1.28-2,0Z" transform="translate(0.01)"/><path class="cls-6" d="M741.58,568.78q-1.7,37.28-3.37,74.54-.48,10.36-.94,20.72c-.06,1.29,1.94,1.29,2,0l3.36-74.34q.48-10.46,1-20.92c.06-1.29-1.94-1.29-2,0Z" transform="translate(0.01)"/><path class="cls-6" d="M594.64,557.56l55.43,2.51,55.51,2.51L736.74,564c1.29.06,1.28-1.94,0-2l-55.43-2.51L625.8,557l-31.16-1.41C593.35,555.5,593.36,557.5,594.64,557.56Z" transform="translate(0.01)"/><path class="cls-6" d="M589.78,664.93l55.43,2.51L700.72,670l31.16,1.41c1.29.06,1.28-1.94,0-2l-55.43-2.51-55.52-2.51-31.15-1.42c-1.29,0-1.29,2,0,2Z" transform="translate(0.01)"/><path class="cls-6" d="M595.78,555.58c-2.33-.11-4.65-.47-7-.4a6.5,6.5,0,0,0-4.76,1.54c-2.07,2.08-1.51,5.51-1.25,8.13a1,1,0,0,0,2,0,28.7,28.7,0,0,1-.24-3.93,4,4,0,0,1,.91-2.78c.94-1,2.6-1,3.9-1,2.15,0,4.29.31,6.43.41,1.29.07,1.28-1.93,0-2Z" transform="translate(0.01)"/><path class="cls-6" d="M730.86,563.7c2.14.09,4.28,0,6.42.16,1.32.12,2.9.31,3.77,1.35a2.84,2.84,0,0,1,.51,1.15,5.73,5.73,0,0,1,.11,1.6,25.47,25.47,0,0,1-.56,3.79,1,1,0,1,0,1.92.53h0c.42-2.16,1.05-4.6.38-6.77-.88-2.78-3.65-3.43-6.24-3.66-2.1-.17-4.21-.06-6.31-.15-1.29-.06-1.28,1.94,0,2Z" transform="translate(0.01)"/><path class="cls-6" d="M591,662.24c-2.14-.09-4.28,0-6.41-.17-1.32-.12-2.91-.3-3.77-1.34a2.73,2.73,0,0,1-.52-1.15,5.73,5.73,0,0,1-.11-1.6,27,27,0,0,1,.57-3.8A1,1,0,0,0,580,653h0a1,1,0,0,0-1.23.7h0c-.41,2.16-1,4.61-.37,6.78.87,2.78,3.64,3.43,6.23,3.65,2.1.18,4.21.07,6.31.16a1,1,0,0,0,0-2Z" transform="translate(0.01)"/><path class="cls-6" d="M726,670.36c2.33.12,4.66.48,7,.41a6.49,6.49,0,0,0,4.76-1.54c2.07-2.08,1.51-5.51,1.26-8.13a1,1,0,0,0-2,0,28.54,28.54,0,0,1,.23,3.92,4,4,0,0,1-.9,2.79c-1,1-2.61,1-3.91,1-2.15,0-4.28-.31-6.43-.42-1.28-.06-1.28,1.94,0,2Z" transform="translate(0.01)"/><path class="cls-6" d="M584.93,574.08l60.63,2.74,60.54,2.74,34.32,1.56c1.29.06,1.28-1.94,0-2l-60.63-2.75-60.54-2.74-34.32-1.55C583.64,572,583.65,574,584.93,574.08Z" transform="translate(0.01)"/><path class="cls-6" d="M581.58,648.13l60.63,2.74,60.54,2.74,34.32,1.56c1.28.06,1.28-1.94,0-2l-60.63-2.75-60.54-2.74-34.32-1.55C580.29,646.07,580.3,648.07,581.58,648.13Z" transform="translate(0.01)"/><path class="cls-6" d="M644.18,667.67q-.33,7.37-.67,14.73a1,1,0,0,0,2,0q.35-7.36.67-14.73C646.24,666.38,644.24,666.38,644.18,667.67Z" transform="translate(0.01)"/><path class="cls-6" d="M670,669.56l-.51,11.11c-.05,1.29,1.95,1.28,2,0l.51-11.11C672.05,668.27,670.05,668.28,670,669.56Z" transform="translate(0.01)"/><path class="cls-6" d="M646,683.24l23.67,1.07c1.29.06,1.28-1.94,0-2L646,681.24C644.68,681.18,644.69,683.18,646,683.24Z" transform="translate(0.01)"/><path class="cls-6" d="M630.55,681.8l56.27,2.55a1,1,0,0,0,0-2l-56.27-2.55C629.27,679.74,629.27,681.74,630.55,681.8Z" transform="translate(0.01)"/><path class="cls-6" d="M629.78,681.05l-.42,9.42c-.06,1.29,1.94,1.28,2,0l.42-9.42C631.84,679.76,629.84,679.77,629.78,681.05Z" transform="translate(0.01)"/><path class="cls-6" d="M631.78,692l55.3,2.5c1.29.06,1.29-1.94,0-2l-55.3-2.5C630.49,690,630.5,692,631.78,692Z" transform="translate(0.01)"/><path class="cls-6" d="M686.52,683.86q-.21,4.83-.44,9.66c-.05,1.29,1.95,1.29,2,0l.44-9.66C688.58,682.57,686.58,682.58,686.52,683.86Z" transform="translate(0.01)"/><path class="cls-3" d="M630.5,597.24c-7,6.42-13.91,13-20.93,19.38-1,.87.46,2.28,1.41,1.41,7-6.41,13.91-13,20.93-19.37C632.91,597.79,631.45,596.38,630.5,597.24Z" transform="translate(0.01)"/><path class="cls-3" d="M612,597.81c6.41,7,12.68,14.16,19.09,21.18.87,1,2.28-.46,1.42-1.41-6.41-7-12.68-14.17-19.09-21.19C612.51,595.44,611.1,596.86,612,597.81Z" transform="translate(0.01)"/><path class="cls-3" d="M708.25,600.76c-7,6.41-13.91,13-20.93,19.36-1,.87.47,2.29,1.42,1.42,7-6.41,13.9-13,20.92-19.37C710.66,601.3,709.2,599.89,708.25,600.76Z" transform="translate(0.01)"/><path class="cls-3" d="M689.72,601.33c6.41,7,12.68,14.16,19.09,21.18.87,1,2.28-.46,1.41-1.41-6.4-7-12.68-14.16-19.09-21.18C690.26,598.92,688.85,600.38,689.72,601.33Z" transform="translate(0.01)"/><path class="cls-3" d="M631.75,634.73l58.62,2.65c1.29.06,1.29-1.94,0-2l-58.66-2.65c-1.29-.06-1.29,1.94,0,2Z" transform="translate(0.01)"/><path class="cls-2" d="M827.45,621.24c-6.05-7-14-13-18.08-21.47a13.26,13.26,0,0,1-1.59-6.32,10.6,10.6,0,0,1,2.62-6.13,11.89,11.89,0,0,1,11.54-4.2c4,.91,7.64,3.48,10.76,6.11a105.67,105.67,0,0,1,9.48,9.33c3,3.2,6.34,6.28,8.51,10.09,2.48,4.35,2.89,9.31.3,13.71-1.53,2.58-3.85,5.27-6.71,6.4a9.06,9.06,0,0,1-6.73-.22c-4.83-1.92-8.61-6.11-12.06-9.85-.87-.94-2.28.47-1.41,1.42,3.42,3.71,7.12,7.68,11.78,9.86a11.29,11.29,0,0,0,13-1.87c4.1-3.77,6.67-9.07,5.71-14.68-.92-5.35-4.57-9.31-8.11-13.14-3.17-3.42-6.28-6.9-9.69-10.08s-7.32-6.41-11.78-8.2a13.61,13.61,0,0,0-12.77,1.08c-4,2.58-7,7.19-6.4,12.07.67,5.58,4.52,10.54,8.08,14.64,3.87,4.45,8.27,8.4,12.12,12.86.84,1,2.25-.44,1.41-1.41Z" transform="translate(0.01)"/><path class="cls-2" d="M809,588.4c7,3.14,14.14,7.58,18.9,13.76.78,1,2.52,0,1.73-1-5-6.48-12.22-11.18-19.62-14.48-1.17-.52-2.19,1.21-1,1.73Z" transform="translate(0.01)"/><path class="cls-2" d="M816.63,609.57a30,30,0,0,0,11.74-5.64,19.46,19.46,0,0,0,6.43-11c.27-1.25-1.66-1.79-1.92-.53A17.7,17.7,0,0,1,827,602.55a27.81,27.81,0,0,1-10.87,5.14,1,1,0,0,0,.53,1.92Z" transform="translate(0.01)"/><path class="cls-2" d="M850.64,626.07c2.18.46,3,2.66,4.44,4.14a23.74,23.74,0,0,0,5.43,4.19,19.73,19.73,0,0,0,12.27,2.37c8.23-1.08,15.14-6.1,19.88-12.74,10.61-14.88,10.59-34.49,5.67-51.43a103.61,103.61,0,0,0-29.81-47.2C856,514,840.3,505.24,823.37,502.74s-35.15,1.92-48,13.59C769,522.16,764,530,763,538.74a26.3,26.3,0,0,0,8.73,22.42c5.78,5.16,14.22,8.75,22,6.25,5.59-1.81,10.61-6.81,10-13-1-11.16-15-18.27-24.77-13.62-6.82,3.22-10.86,11.08-13.07,17.92-2.68,8.26-3.22,17.15-2.76,25.77a115.3,115.3,0,0,0,1.39,12.57c.59,3.59,1.5,7.09,2.24,10.65.68,3.27,1.75,8.2-.88,10.92-2.47,2.57-7.24,1.44-10.32,1-4.28-.66-8.69-.91-12.72-2.6-1.19-.5-1.7,1.43-.53,1.92,4,1.69,8.35,1.94,12.59,2.59,3.25.49,6.9,1.26,10.09,0,7.24-2.82,4-13.28,2.68-18.75A101.5,101.5,0,0,1,765,580.07c-.06-8.24.9-16.73,4.14-24.37,2.59-6.1,6.94-12.73,13.86-14.17,5.18-1.08,10.67,1.07,14.39,4.68,3.27,3.17,5.59,8,3.73,12.54-2.73,6.64-11.14,8.54-17.47,6.86a26.08,26.08,0,0,1-17.08-15.05c-3.2-8.06-1.56-16.81,2.91-24,8.87-14.37,26.62-22.09,43.07-22.44s32.24,6,45.42,15.44A103.12,103.12,0,0,1,891,559.25c7.7,16.22,11.66,35.75,5.42,53.09-2.57,7.12-6.85,14.08-13.22,18.39A24.78,24.78,0,0,1,872,635a18,18,0,0,1-12.09-3.18,19.34,19.34,0,0,1-4.62-4.36c-1.11-1.49-2.23-2.78-4.13-3.18-1.26-.26-1.79,1.67-.53,1.93Z" transform="translate(0.01)"/><path class="cls-4" d="M564.16,454.76a40.42,40.42,0,0,0-.91-6,1.43,1.43,0,0,0-.46-.76c-.13-.74-.24-1.47-.39-2.21a1.41,1.41,0,0,0-.59-.91c-.35-1.68-.71-3.36-1.11-5s-3-1.7-3.27,0c-.16,1.1-.3,2.19-.43,3.29a7.26,7.26,0,0,0-.06-1.14,1.71,1.71,0,0,0-3.34-.45c-4,10.26-9.12,20-12.32,30.59a1.51,1.51,0,0,0,.56,1.71,6.18,6.18,0,0,0-.19,1.29c-.13,2,2.7,2.13,3.33.45a85.5,85.5,0,0,1,5.39-11.26,1.58,1.58,0,0,0,2-.59l-.06.31a1.91,1.91,0,0,0,1.63,2.16h0c-.23.41-.49.85-.76,1.32a1.53,1.53,0,0,0-1.73,1.18q-.76,2.58-1.39,5.19a17.19,17.19,0,0,0-.59,2.35c-1.9,6.2-3.72,12.38-4.41,18.87-2.14,4.82-4.27,9.9-3.87,14.82a1.73,1.73,0,0,0,1.25,1.64,12,12,0,0,0,5.12.48A1.88,1.88,0,0,0,549.2,511a2,2,0,0,0,2.58-1c2.38-6.61,3.24-13.47,4.22-20.34v-.05q1-3.66,2-7.31a1.63,1.63,0,0,0,1.85-1.19c.51-2.09,1-4.16,1.37-6.23a43.74,43.74,0,0,0,2.27-10.29,1.48,1.48,0,0,0,.67-1.35c0-2.47-.16-4.91-.36-7.34A1.43,1.43,0,0,0,564.16,454.76Z" transform="translate(0.01)"/><path class="cls-2" d="M548.17,464.75l-11.52,46.13a1,1,0,0,0,1.93.53l11.52-46.17a1,1,0,1,0-1.93-.53Z" transform="translate(0.01)"/><path class="cls-2" d="M560.56,467.84Q554.8,490.91,549.05,514c-.32,1.25,1.61,1.79,1.92.54l11.52-46.14a1,1,0,1,0-1.93-.53Z" transform="translate(0.01)"/><path class="cls-2" d="M548.47,513.24c-3.56-.89-7-2.11-10.59-3a1,1,0,1,0-.53,1.93c3.56.9,7,2.11,10.59,3a1,1,0,1,0,.53-1.93Z" transform="translate(0.01)"/><path class="cls-2" d="M560.24,467.49l-10-2.49a1,1,0,0,0-.53,1.92l10,2.5a1,1,0,1,0,.53-1.93Z" transform="translate(0.01)"/><path class="cls-2" d="M563.44,469a47.2,47.2,0,0,0,1.64-15.91c-.34-5.16-1.5-10.52-4.51-14.81-.73-1-2.47,0-1.73,1,2.89,4.11,4,9.23,4.26,14.17a45.23,45.23,0,0,1-1.59,15,1,1,0,1,0,1.93.54Z" transform="translate(0.01)"/><path class="cls-2" d="M558.05,437.45C547.36,447.68,543.71,462,537.6,475c-.54,1.16,1.18,2.18,1.73,1,6-12.79,9.59-27.07,20.14-37.15.93-.89-.48-2.31-1.42-1.42Z" transform="translate(0.01)"/><path class="cls-2" d="M539.15,477.08l3.09.78a1,1,0,0,0,1.23-.7h0a1,1,0,0,0-.69-1.23l-3.1-.78a1,1,0,0,0-1.23.7h0a1,1,0,0,0,.7,1.23Z" transform="translate(0.01)"/><path class="cls-2" d="M536.62,511.15c.1,7.54.71,15.16-.39,22.66-.18,1.26,1.74,1.81,1.93.54,1.12-7.7.56-15.47.46-23.2a1,1,0,0,0-2,0Z" transform="translate(0.01)"/><path class="cls-2" d="M549.3,513.53c-5.93,5.57-9.83,13.29-12.93,20.71-.5,1.18,1.44,1.7,1.93.53a81.73,81.73,0,0,1,5.31-10.53,42.72,42.72,0,0,1,7.11-9.27c.93-.89-.48-2.3-1.42-1.42Z" transform="translate(0.01)"/><path class="cls-2" d="M547,465.15c-.92,3.67-1.8,7.59-4,10.74a1,1,0,0,0,1.73,1c2.29-3.28,3.24-7.39,4.2-11.22a1,1,0,1,0-1.93-.53Z" transform="translate(0.01)"/><path class="cls-2" d="M542.37,522.3a16.64,16.64,0,0,0-2.88-1.15,1,1,0,0,0-1.23.69,1.1,1.1,0,0,0,0,.31,23.38,23.38,0,0,0,.27,3.55,1,1,0,0,0,2,0,23.38,23.38,0,0,1-.27-3.55l-1.27,1a8.77,8.77,0,0,1,1.31.44h0l.15.07.3.13.67.32a1.14,1.14,0,0,0,.77.1,1.1,1.1,0,0,0,.6-.46,1,1,0,0,0-.36-1.37h0Z" transform="translate(0.01)"/><path class="cls-2" d="M540.37,393.12c-10.27,17.44-24.28,32.23-38.17,46.8-14.66,15.32-28.64,31.32-42.35,47.53-14.24,16.85-28.17,34-42,51.17S390.47,573,376.77,590.16s-27.4,34.22-41.4,51.08l-5.26,6.3c-.83,1,.58,2.4,1.41,1.41,14.2-16.91,28.1-34.07,41.89-51.31s27.46-34.51,41.23-51.73,27.66-34.38,41.84-51.29c13.83-16.5,27.82-32.93,42.66-48.54,13.78-14.49,28-28.85,39-45.6,1.38-2.08,2.69-4.2,4-6.34a1,1,0,0,0-1.73-1Z" transform="translate(0.01)"/><path class="cls-2" d="M838.37,428c11.29,21.92,25.19,42.37,40.1,62,15.09,19.83,31.23,38.82,47.28,57.86,8.86,10.5,17.69,21,26.29,31.72.81,1,2.21-.42,1.41-1.41C938,559,921.89,540.4,906.17,521.47s-31.27-38.47-45-59.06a359.71,359.71,0,0,1-21-35.37c-.59-1.14-2.32-.13-1.73,1Z" transform="translate(0.01)"/><path class="cls-2" d="M667.15,467.72a218.47,218.47,0,0,1-7.85,39.15c-.38,1.23,1.55,1.76,1.93.53a220.79,220.79,0,0,0,7.92-39.68C669.3,466.44,667.3,466.45,667.15,467.72Z" transform="translate(0.01)"/><path class="cls-2" d="M376.7,404.52a8.07,8.07,0,0,0-1.33,7.89,6.66,6.66,0,0,0,5.42,4.25c2.85.25,5-2,6.23-4.35a6.9,6.9,0,0,0,.7-4.44,5.94,5.94,0,0,0-1.87-3.22,7.3,7.3,0,0,0-8.79-.48,1,1,0,1,0,.82,1.82l.18-.1a6.48,6.48,0,0,1,.81-.46l.23-.11c.17-.08-.21.07.08,0l.47-.16a7.68,7.68,0,0,1,.83-.19h1.72l.43.11.41.13.16.06h0a6.72,6.72,0,0,1,.75.4l.31.22c.13.09-.11-.1,0,0l.16.13a7.53,7.53,0,0,1,.56.57h0l.1.13a3.45,3.45,0,0,1,.2.32l.18.33.07.15c-.1-.2,0,0,0,.07a6.21,6.21,0,0,1,.2.74s0,.28,0,.12,0,.13,0,.13v1.11a6,6,0,0,1-.25.92,8,8,0,0,1-2,3.06l-.14.12-.1.08-.07.05L383,414l-.28.16-.17.09s-.27.12-.13.07l-.24.08-.33.09-.33.06c.28,0-.09,0-.17,0h-.83a2,2,0,0,1-.35-.09,1.31,1.31,0,0,1-.28-.09l-.17-.06c-.14-.05.22.11,0,0s-.41-.21-.61-.33l-.28-.19-.12-.09h0a6.14,6.14,0,0,1-.52-.5c-.09-.1-.17-.2-.26-.29s-.11-.15,0,0l-.09-.13c-.15-.22-.29-.44-.42-.67l-.18-.36h0s-.06-.16-.08-.23a6.82,6.82,0,0,1-.26-.88,3.2,3.2,0,0,0-.07-.41V410a8.34,8.34,0,0,1,0-1,.54.54,0,0,0,0-.18v-.1s.06-.31.09-.46a7.21,7.21,0,0,1,.31-1c.07-.18-.1.2,0-.09,0-.1.09-.19.14-.28s.16-.32.25-.47a10,10,0,0,1,.7-1,1,1,0,0,0-1.73-1Z" transform="translate(0.01)"/><path class="cls-2" d="M283.5,384a8,8,0,0,0-1.34,7.89,6.64,6.64,0,0,0,5.42,4.24c2.85.25,5-2,6.23-4.35a6.84,6.84,0,0,0,.7-4.44,5.94,5.94,0,0,0-1.87-3.22,7.3,7.3,0,0,0-8.79-.48,1,1,0,0,0,1,1.72,6.48,6.48,0,0,1,.81-.46l.23-.11c.17-.07-.21.07.09,0l.46-.16a7.68,7.68,0,0,1,.83-.19H289l.43.11.41.13.16.07h0a5.46,5.46,0,0,1,.75.41c.11.06.21.14.32.21s-.12-.1,0,0l.16.14a7.4,7.4,0,0,1,.56.56h0l.1.13c.07.11.14.21.2.32a2.68,2.68,0,0,1,.18.33,1,1,0,0,1,.07.15c-.09-.2,0,0,0,.07a3.86,3.86,0,0,1,.2.74s.05.28,0,.13,0,.13,0,.12v1.12a6,6,0,0,1-.25.92,7.8,7.8,0,0,1-2,3l-.14.12s-.22.17-.1.09-.05,0-.07,0l-.17.12-.28.17-.18.09-.13.06c.11,0-.19.07-.24.08l-.33.09-.33.07c.28-.05-.08,0-.17,0h-.65c-.22,0,.16,0,0,0h-.18l-.35-.08-.28-.09-.17-.07c-.14-.05.22.11,0,0s-.42-.21-.62-.33l-.28-.19-.12-.09h0a4.18,4.18,0,0,1-.53-.5c-.09-.09-.17-.19-.26-.29s-.11-.15,0,0a.64.64,0,0,1-.1-.13c-.15-.22-.29-.44-.42-.67l-.18-.36h0l-.09-.23a5.11,5.11,0,0,1-.25-.87,3.1,3.1,0,0,0-.08-.42v-.24a5.57,5.57,0,0,1,0-1v-.28s.06-.31.1-.46a6.82,6.82,0,0,1,.31-1c.07-.18-.1.21,0-.09l.14-.28c.08-.16.16-.32.25-.47a11.9,11.9,0,0,1,.7-1,1,1,0,1,0-1.72-1Z" transform="translate(0.01)"/><path class="cls-2" d="M939.11,169.13a8.07,8.07,0,0,0-1.33,7.9,6.62,6.62,0,0,0,5.42,4.24c2.85.25,5-2,6.22-4.35a6.84,6.84,0,0,0,.71-4.44,5.86,5.86,0,0,0-1.88-3.22,7.27,7.27,0,0,0-8.78-.48,1,1,0,0,0,.82,1.82l.18-.1a6.48,6.48,0,0,1,.81-.46l.23-.11c.17-.07-.22.07.08,0l.46-.16a7.68,7.68,0,0,1,.83-.19h1.73l.42.11.42.13.16.07h0a6.72,6.72,0,0,1,.75.4l.31.22h0l.16.14a4.85,4.85,0,0,1,.55.56h0l.09.13.21.32c.06.11.12.22.17.33l.08.15c-.1-.2,0,0,0,.07a4.79,4.79,0,0,1,.21.74v1.36a4.89,4.89,0,0,1-.24.93,7.91,7.91,0,0,1-2,3l-.13.12-.11.08c.11-.09,0,0-.07,0l-.17.12-.28.16-.18.1-.13.06-.24.08-.33.09a1.8,1.8,0,0,1-.32.06h-1l-.35-.09-.27-.08-.17-.07c-.15-.05.21.11,0,0s-.42-.21-.62-.33l-.28-.19-.12-.09h0s-.36-.32-.53-.5a3.47,3.47,0,0,1-.25-.29h0l-.09-.13a7.57,7.57,0,0,1-.42-.67c-.07-.12-.12-.24-.18-.36h0l-.09-.23a6.22,6.22,0,0,1-.25-.87,3.1,3.1,0,0,0-.08-.42v-.24a5.57,5.57,0,0,1,0-1v-.28s.06-.31.1-.46a6.82,6.82,0,0,1,.31-1c.07-.18-.1.2,0-.09,0-.1.09-.19.13-.28s.17-.32.26-.47a7.78,7.78,0,0,1,.7-1,1,1,0,0,0-1.73-1Z" transform="translate(0.01)"/><path class="cls-2" d="M405.14,74.35a8,8,0,0,0-1.33,7.89,6.62,6.62,0,0,0,5.42,4.24c2.85.25,5-2,6.22-4.35a6.84,6.84,0,0,0,.71-4.44,5.86,5.86,0,0,0-1.88-3.22A7.27,7.27,0,0,0,405.5,74a1,1,0,0,0-.36,1.37h0a1,1,0,0,0,1.37.35,8.92,8.92,0,0,1,.86-.47l.23-.11c.17-.07-.22.07.08,0l.46-.16a8.45,8.45,0,0,1,.84-.19h1.72l.42.11.42.14.16.06h0a5.46,5.46,0,0,1,.75.41l.31.21h0l.16.14a4.94,4.94,0,0,1,.55.57h0l.09.14.21.31c.06.11.12.22.17.33l.08.15c-.1-.2,0,0,0,.07a4.79,4.79,0,0,1,.21.74s0,.28,0,.13,0,.13,0,.13v1.11a7.32,7.32,0,0,1-.24.92,8.06,8.06,0,0,1-2.05,3.06l-.13.11-.11.09c.1-.08,0,0-.07,0l-.17.12-.28.17-.18.09-.13.06-.24.08a1.68,1.68,0,0,1-.32.09l-.33.07h-.17c-.22,0-.43,0-.65,0H409l-.36-.08-.26-.07-.17-.07c-.14,0,.21.12,0,0s-.42-.21-.62-.33l-.28-.19-.12-.09h0s-.36-.32-.53-.5l-.25-.29h0l-.09-.13a4.69,4.69,0,0,1-.42-.67c-.07-.12-.12-.24-.18-.36h0l-.09-.23a6.22,6.22,0,0,1-.25-.87,3.07,3.07,0,0,0-.07-.42v-.24a5.57,5.57,0,0,1,0-1v-.28s.06-.3.1-.46a6.82,6.82,0,0,1,.31-1c.07-.18-.1.21,0-.09l.13-.28c.08-.16.17-.32.26-.47a8.55,8.55,0,0,1,.7-1,1,1,0,0,0-.36-1.37h0a1,1,0,0,0-1.37.36h0Z" transform="translate(0.01)"/><path class="cls-2" d="M568.59,253.24a6.71,6.71,0,0,0-1.1,6.56,5.56,5.56,0,0,0,4.58,3.58c2.38.21,4.23-1.66,5.22-3.63a5.75,5.75,0,0,0,.59-3.75,5,5,0,0,0-1.57-2.7,6.1,6.1,0,0,0-7.36-.42,1,1,0,0,0,1,1.73,7.08,7.08,0,0,1,.66-.38l.19-.09c.14-.07-.22.08,0,0a2.48,2.48,0,0,1,.38-.12l.67-.16c-.22,0,0,0,.11,0h1.22a2.25,2.25,0,0,1,.35.09l.34.11.13.05h0c.21.1.41.21.61.33l.26.18c.11.07-.14-.13,0,0a.69.69,0,0,0,.13.11c.16.14.3.3.45.46s.13.18,0,0a.44.44,0,0,0,.08.11l.16.26.15.27V256h0a4.44,4.44,0,0,1,.16.6s.06.25,0,.08,0,0,0,.08v.7h0v.1a6.93,6.93,0,0,1-.2.75c0,.06-.16.39-.08.21l-.18.37c-.15.27-.32.53-.49.79l-.24.36a.64.64,0,0,0-.1.13h0a6.88,6.88,0,0,1-.53.55l-.11.1s-.19.14-.06.05h0l-.14.09a1.71,1.71,0,0,1-.23.13l-.14.08s-.23.12-.09,0-.12,0-.17.06l-.26.07a.65.65,0,0,1-.27.05H572l-.28-.07-.23-.08-.14,0c-.13,0,.23.12,0,0s-.34-.17-.5-.27l-.23-.15c-.22-.16.11.1-.06,0l-.43-.41L570,260s-.13-.12,0,.06l-.07-.11a3.77,3.77,0,0,1-.34-.54c-.06-.1-.1-.2-.15-.29h0l-.07-.18a4.44,4.44,0,0,1-.21-.71,1.86,1.86,0,0,1-.06-.34v-.15a3.48,3.48,0,0,1,0-.79v-.14h0a1,1,0,0,1,.07-.37c.07-.27.18-.53.26-.8s-.1.22,0,0,.07-.16.11-.23.13-.26.2-.38c.18-.3.37-.57.57-.84a1,1,0,0,0-.36-1.37h0a1,1,0,0,0-1.36.36Z" transform="translate(0.01)"/><path class="cls-2" d="M750.26,74.68a6.71,6.71,0,0,0-1.1,6.56,5.59,5.59,0,0,0,4.59,3.58c2.37.22,4.22-1.66,5.22-3.62a5.84,5.84,0,0,0,.59-3.76A5,5,0,0,0,758,74.75a6.13,6.13,0,0,0-7.37-.43,1,1,0,0,0-.36,1.37h0a1,1,0,0,0,1.37.36h0a5.38,5.38,0,0,1,.66-.38l.19-.09c.14-.07-.22.08,0,0l.37-.13c.22-.06.45-.11.68-.15h1.3l.35.09.33.11.13,0c-.21-.07-.09,0,0,0a5.24,5.24,0,0,1,.61.34c.08,0,.16.12.25.17s-.13-.12,0,0l.13.11a4.89,4.89,0,0,1,.45.46h0a.44.44,0,0,1,.08.11l.17.25c0,.09.1.18.14.27l.06.12h0a4.11,4.11,0,0,1,.17.6s.06.24,0,.07,0,.06,0,.08V79a3.86,3.86,0,0,1-.2.74c0,.06-.16.39-.07.21-.06.12-.12.25-.19.37a6.48,6.48,0,0,1-.49.79c-.08.12-.15.24-.24.36l-.1.14h0a6.88,6.88,0,0,1-.53.55l-.11.09-.07.05h0l-.14.09-.23.14-.15.07s-.23.13-.08,0-.12,0-.17.06l-.27.07a1.1,1.1,0,0,1-.26.06h-.09a4.69,4.69,0,0,1-.53,0h-.08l-.29-.07-.22-.07h-.14c-.13,0,.23.11,0,0a3.9,3.9,0,0,1-.51-.28l-.22-.15c-.15-.09,0,0,0,.05l-.12-.1a4.07,4.07,0,0,1-.42-.41l-.21-.23h0l-.08-.1a6.26,6.26,0,0,1-.34-.55,2.59,2.59,0,0,1-.14-.29c-.08-.15,0,0,0,.06a1.46,1.46,0,0,1-.07-.19,4.44,4.44,0,0,1-.21-.71,1,1,0,0,1-.06-.33h0v-.2a5.21,5.21,0,0,1,0-.79v-.15h0s0-.25.08-.37.17-.53.25-.79-.1.21,0,0a1.63,1.63,0,0,1,.11-.23c.06-.13.13-.25.2-.38a7.76,7.76,0,0,1,.57-.84,1,1,0,0,0-.36-1.37h0a1,1,0,0,0-1.37.36h0Z" transform="translate(0.01)"/><path class="cls-2" d="M857.69,253.24a6.71,6.71,0,0,0-1.1,6.56,5.58,5.58,0,0,0,4.58,3.58c2.38.21,4.23-1.66,5.22-3.63A5.75,5.75,0,0,0,867,256a5,5,0,0,0-1.61-2.76,6.1,6.1,0,0,0-7.36-.42,1,1,0,0,0-.36,1.37h0a1,1,0,0,0,1.37.36h0a5.38,5.38,0,0,1,.66-.38l.18-.09c.14-.07-.22.08,0,0a2.48,2.48,0,0,1,.38-.12l.68-.16c-.23,0,0,0,.11,0h1.23a.49.49,0,0,1,.34.09l.34.11.13.05H863c.21.1.41.21.61.33l.26.18c.11.07-.14-.13,0,0l.13.11c.16.14.3.3.45.46s.13.18,0,0a.44.44,0,0,0,.08.11l.16.26.15.27v.12h0a4.44,4.44,0,0,1,.16.6s.06.25,0,.08,0,0,0,.08v.7h0v.1a6.93,6.93,0,0,1-.2.75c0,.06-.16.39-.08.21-.06.12-.11.25-.18.37-.15.27-.32.53-.49.79l-.24.36a.64.64,0,0,0-.1.13h0a4.59,4.59,0,0,1-.53.55l-.1.1-.07.05h0l-.14.09a1.71,1.71,0,0,1-.23.13l-.14.08h-.08c.13-.08-.12,0-.18.06l-.26.07a.65.65,0,0,1-.27.05H861l-.28-.07-.23-.08-.14,0c-.13,0,.23.12,0,0s-.34-.17-.5-.27l-.23-.15h.06l-.12-.09c-.15-.13-.29-.27-.43-.41l-.2-.24s-.13-.12,0,.06l-.07-.11a4.93,4.93,0,0,1-.34-.54l-.15-.29h0l-.07-.18a5.75,5.75,0,0,1-.2-.71c0-.08-.09-.26-.06-.34v.06a.74.74,0,0,1,0-.21,5.21,5.21,0,0,1,0-.79v-.14h0a.85.85,0,0,1,.08-.37c.06-.27.17-.53.25-.8s-.1.22,0,0,.07-.16.11-.23.13-.26.21-.38a7.76,7.76,0,0,1,.57-.84,1,1,0,0,0-.36-1.37h0a1,1,0,0,0-1.37.36h0Z" transform="translate(0.01)"/><path class="cls-2" d="M321.21,505.42c-.19-5.54,1.19-11.18,2.48-16.52h-1.93A88.34,88.34,0,0,1,325.37,500c.31,1.19.48,2.4.72,3.61.18.91.3,2.06,1.08,2.66a1,1,0,0,0,1.37-.36h0a1,1,0,0,0-.36-1.37h0c.3.23.3.41.18,0-.06-.2-.11-.41-.16-.62-.13-.53-.23-1.07-.32-1.61-.23-1.27-.49-2.51-.82-3.76a86.81,86.81,0,0,0-3.37-10.19c-.34-.83-1.67-1.05-1.93,0-.69,2.89-1.33,5.8-1.81,8.73a42.38,42.38,0,0,0-.74,8.33,1,1,0,0,0,2,0Z" transform="translate(0.01)"/><path class="cls-2" d="M327.37,506.38c4.21.73,8.41-.3,12.63-.32l-.5-1.86c-3.57,2.48-6.42,6-10.22,8.1a1,1,0,0,0,1,1.72c3.81-2.14,6.65-5.62,10.22-8.09a1,1,0,0,0-.51-1.87c-4,0-8.1,1.09-12.1.39a1,1,0,0,0-1.23.7h0a1,1,0,0,0,.7,1.23h0Z" transform="translate(0.01)"/><path class="cls-2" d="M329.12,514.4c1.61,3.69,4.72,6.53,6.08,10.36l1.23-1.23c-2.55-.56-4.46-2.62-6.68-3.87A30.82,30.82,0,0,1,327,517.9,22.26,22.26,0,0,0,324.1,516c-1.14-.59-2.15,1.13-1,1.72a23.33,23.33,0,0,1,2.88,1.93,34.63,34.63,0,0,0,2.94,1.86c2.31,1.35,4.3,3.39,7,4,.69.15,1.5-.47,1.23-1.23-1.43-4-4.6-7-6.28-10.84a1,1,0,0,0-1.37-.36h0a1,1,0,0,0-.36,1.37h0Z" transform="translate(0.01)"/><path class="cls-2" d="M319.52,504.45c-4,.7-8.09-.37-12.11-.39a1,1,0,0,0-1,1,1,1,0,0,0,.51.88c3.52,2.46,5.93,6.3,9.71,8.44a1,1,0,0,0,1-1.73c-3.75-2.12-6.19-6-9.7-8.44l-.51,1.86c4.23,0,8.42,1.05,12.64.32a1,1,0,0,0,.7-1.23h0a1,1,0,0,0-1.23-.7Z" transform="translate(0.01)"/><path class="cls-2" d="M316.61,513.39c-1.69,3.85-4.86,6.85-6.24,10.85-.27.76.55,1.38,1.23,1.23,2.64-.57,4.61-2.54,6.85-3.89a31.06,31.06,0,0,0,2.83-1.83,21.4,21.4,0,0,1,2.87-2c1.15-.59.13-2.32-1-1.72a18.92,18.92,0,0,0-2.79,2,22.74,22.74,0,0,1-2.75,1.79c-2.15,1.26-4,3.25-6.53,3.79l1.23,1.23c1.37-3.82,4.47-6.67,6.09-10.36a1,1,0,0,0-.36-1.37h0a1,1,0,0,0-1.37.36h0Z" transform="translate(0.01)"/><path class="cls-2" d="M853.6,142.06c-.18-5.53,1.19-11.17,2.48-16.52h-1.93a88.21,88.21,0,0,1,3.57,11c.31,1.18.5,2.37.73,3.57.14.75.24,2.19.91,2.7,1,.78,2.43-.62,1.41-1.41h0c-.06-.23-.12-.39-.16-.58-.14-.56-.24-1.12-.35-1.69-.22-1.25-.46-2.46-.79-3.7a87.47,87.47,0,0,0-3.41-10.34,1,1,0,0,0-1.93,0c-.69,2.89-1.33,5.8-1.81,8.73a42.21,42.21,0,0,0-.74,8.32,1,1,0,0,0,2,0Z" transform="translate(0.01)"/><path class="cls-2" d="M859.8,143c4.21.73,8.41-.3,12.63-.32l-.5-1.86c-3.57,2.47-6.42,6-10.22,8.1a1,1,0,0,0,1,1.72c3.81-2.14,6.65-5.62,10.22-8.09a1,1,0,0,0-.51-1.87c-4,0-8.1,1.09-12.1.39a1,1,0,0,0-1.23.7h0a1,1,0,0,0,.7,1.23h0Z" transform="translate(0.01)"/><path class="cls-2" d="M861.51,151c1.61,3.7,4.72,6.54,6.08,10.37l1.23-1.23c-2.55-.56-4.46-2.62-6.68-3.88a27.47,27.47,0,0,1-2.77-1.75,21.28,21.28,0,0,0-2.88-1.93c-1.14-.59-2.15,1.13-1,1.72a23.11,23.11,0,0,1,2.88,1.9,34.63,34.63,0,0,0,2.94,1.86c2.31,1.35,4.3,3.39,7,4,.69.15,1.5-.46,1.23-1.23-1.43-4-4.6-7-6.29-10.84a1,1,0,1,0-1.72,1h0Z" transform="translate(0.01)"/><path class="cls-2" d="M851.91,141.1c-4,.7-8.09-.37-12.11-.39a1,1,0,0,0-1,1,1,1,0,0,0,.51.88c3.52,2.45,5.93,6.3,9.7,8.44a1,1,0,0,0,1-1.73c-3.75-2.12-6.19-6-9.7-8.44l-.51,1.86c4.23,0,8.42,1,12.64.32a1,1,0,0,0,.7-1.23h0a1,1,0,0,0-1.23-.7h0Z" transform="translate(0.01)"/><path class="cls-2" d="M849,150c-1.69,3.86-4.86,6.83-6.29,10.84-.27.77.55,1.38,1.23,1.23,2.64-.57,4.61-2.53,6.85-3.88a31.06,31.06,0,0,0,2.83-1.83,21.4,21.4,0,0,1,2.87-2c1.14-.59.13-2.32-1-1.72a18.92,18.92,0,0,0-2.79,2,24.91,24.91,0,0,1-2.75,1.79c-2.15,1.26-4,3.25-6.53,3.79l1.23,1.23c1.36-3.83,4.47-6.67,6.09-10.37a1,1,0,0,0-.36-1.37h0a1,1,0,0,0-1.37.36h0Z" transform="translate(0.01)"/><path class="cls-2" d="M588.46,126.87a29.27,29.27,0,0,1,1.16-7.72h-1.93a42.26,42.26,0,0,1,1.72,5.28c.15.57.23,1.15.34,1.72a2.39,2.39,0,0,0,.75,1.58,1,1,0,0,0,1.37-.36h0a1,1,0,0,0-.36-1.37h0l.31.3.07.15v-.14l-.08-.29c-.06-.26-.1-.51-.15-.77-.11-.6-.23-1.19-.39-1.78a41.08,41.08,0,0,0-1.6-4.85,1,1,0,0,0-2,0c-.33,1.38-.63,2.76-.86,4.15a20.85,20.85,0,0,0-.37,4.1,1,1,0,0,0,2,0Z" transform="translate(0.01)"/><path class="cls-2" d="M590.74,127.83c2.06.36,4.09-.12,6.15-.13l-.52-1.86a28.84,28.84,0,0,0-2.49,2c-.41.35-.83.71-1.25,1h0l-.17.13-.3.22c-.19.13-.39.26-.6.38a1,1,0,1,0,1,1.72h0a16.5,16.5,0,0,0,2.62-2l1.22-1.06.61-.5.12-.09c.1-.08-.15.1,0,0l.28-.21a1,1,0,0,0-.5-1.86c-1,0-1.91.13-2.86.2a14.48,14.48,0,0,1-1.47.08h-1.27a1,1,0,0,0-1.23.7h0a1,1,0,0,0,.7,1.23h0Z" transform="translate(0.01)"/><path class="cls-2" d="M591.24,131.4a14.66,14.66,0,0,0,1.48,2.42c.27.39.54.78.78,1.18a7.38,7.38,0,0,1,.58,1.2l1.23-1.23a3.31,3.31,0,0,1-.42-.12c-.26-.08.09,0,0,0l-.21-.1a8.15,8.15,0,0,1-.8-.49c-.52-.35-1-.74-1.57-1.06a12.75,12.75,0,0,1-1.32-.83,10.47,10.47,0,0,0-1.36-.92,1,1,0,1,0-1.07,1.69l.07,0a10.4,10.4,0,0,1,1.36.91c.46.33.92.6,1.4.89,1.14.66,2.12,1.65,3.45,1.94.69.15,1.5-.47,1.23-1.23a11.7,11.7,0,0,0-1.51-2.78,15.21,15.21,0,0,1-1.53-2.5,1,1,0,0,0-1.37-.36h0a1,1,0,0,0-.36,1.37h0Z" transform="translate(0.01)"/><path class="cls-2" d="M587,125.9h-1.26a14.68,14.68,0,0,1-1.48-.08c-1-.07-1.9-.2-2.85-.2a1,1,0,0,0-1,.73,1.05,1.05,0,0,0,.46,1.13l.14.1c.11.07-.14-.11,0,0l.26.21c.19.16.37.33.55.5l1.19,1.16a13.11,13.11,0,0,0,2.51,2.07,1,1,0,0,0,1-1.73,5.57,5.57,0,0,1-.57-.37c-.16-.11.07.06,0,0l-.13-.11-.29-.25c-.42-.36-.82-.75-1.22-1.14a18.48,18.48,0,0,0-2.38-2.13l-.5,1.86c2.06,0,4.08.49,6.14.13a1,1,0,0,0,.7-1.23h0a1,1,0,0,0-1.23-.7h0Z" transform="translate(0.01)"/><path class="cls-2" d="M585.3,130.39a15.21,15.21,0,0,1-1.53,2.5,11.93,11.93,0,0,0-1.52,2.78c-.27.76.55,1.38,1.24,1.23,1.3-.28,2.27-1.23,3.37-1.9a11.94,11.94,0,0,0,1.35-.87l.48-.37c.22-.18-.16.12.07-.06l.16-.12a4.59,4.59,0,0,1,.66-.42,1,1,0,0,0-1-1.73,9.49,9.49,0,0,0-1.44,1c-.14.12.06,0,0,0l-.17.13-.33.23c-.21.15-.45.25-.67.39-.52.3-1,.67-1.5,1a6.28,6.28,0,0,1-.78.48,1.24,1.24,0,0,1-.2.1c-.16.08.07,0,0,0s-.3.1-.46.13l1.23,1.23s.15-.38.08-.21c0-.12.1-.23.16-.35s.23-.44.36-.66c.24-.4.5-.78.77-1.16a14.6,14.6,0,0,0,1.47-2.42,1,1,0,1,0-1.72-1h0Z" transform="translate(0.01)"/><path class="cls-2" d="M934.43,416a30,30,0,0,1,1.16-7.71h-1.92a43.21,43.21,0,0,1,1.69,5.2c.15.57.24,1.13.35,1.7s.17,1.21.56,1.52a1,1,0,0,0,1.41,0h0a1,1,0,0,0,0-1.41h0s.19.43.14.21-.05-.18-.07-.27c-.07-.27-.12-.53-.17-.8-.11-.6-.22-1.18-.37-1.76a42.94,42.94,0,0,0-1.63-4.92,1,1,0,0,0-2,0c-.33,1.38-.64,2.76-.87,4.15a21.64,21.64,0,0,0-.37,4.1,1,1,0,0,0,2,0Z" transform="translate(0.01)"/><path class="cls-2" d="M936.72,416.93c2.06.36,4.08-.12,6.14-.13l-.5-1.86a27.23,27.23,0,0,0-2.5,2.05c-.41.36-.82.71-1.25,1.05h0l-.24.2-.3.22c-.2.13-.4.26-.61.38a1,1,0,0,0,.82,1.82l.18-.1a15.46,15.46,0,0,0,2.63-2l1.22-1.06.6-.5.12-.09h0l.28-.21a1,1,0,0,0-.54-1.86c-1,0-1.9.13-2.86.21-.48,0-1,.07-1.47.07h-1.26a1,1,0,1,0-.53,1.92h0Z" transform="translate(0.01)"/><path class="cls-2" d="M937.22,420.5a14.6,14.6,0,0,0,1.47,2.42c.27.39.54.78.78,1.19a7.75,7.75,0,0,1,.59,1.19l1.23-1.23a3,3,0,0,1-.43-.12c-.26-.08.09.06,0,0l-.2-.1a6.52,6.52,0,0,1-.8-.48c-.52-.36-1-.75-1.57-1.07a12.75,12.75,0,0,1-1.32-.83,10.57,10.57,0,0,0-1.37-.92,1,1,0,1,0-1.07,1.69l.07,0a10.57,10.57,0,0,1,1.37.92c.45.32.92.59,1.4.88,1.14.67,2.11,1.65,3.44,1.94.69.15,1.51-.47,1.23-1.23a11.7,11.7,0,0,0-1.51-2.78,15.21,15.21,0,0,1-1.53-2.5,1,1,0,0,0-1.37-.36h0a1,1,0,0,0-.35,1.37Z" transform="translate(0.01)"/><path class="cls-2" d="M933,415H931.7a10.2,10.2,0,0,1-1.47-.07c-1-.08-1.9-.2-2.86-.21a1,1,0,0,0-.54,1.86.71.71,0,0,0,.14.1h0c-.14-.12,0,.05.07.07l.12.1.55.49c.4.38.79.77,1.18,1.16a12.81,12.81,0,0,0,2.51,2.07,1,1,0,0,0,1.07-1.69l-.07,0c-.2-.11-.38-.24-.57-.37s.07.06,0,0l-.13-.11-.3-.25c-.42-.36-.82-.75-1.21-1.14a19.26,19.26,0,0,0-2.38-2.13l-.51,1.86c2.06,0,4.09.49,6.15.13a1,1,0,0,0,.7-1.23h0a1,1,0,0,0-1.23-.69Z" transform="translate(0.01)"/><path class="cls-2" d="M931.27,419.49a14.56,14.56,0,0,1-1.53,2.5,11.7,11.7,0,0,0-1.51,2.78c-.27.77.54,1.38,1.23,1.23,1.3-.28,2.27-1.23,3.38-1.9.46-.27.91-.56,1.34-.87l.48-.37c.23-.18-.16.12.07-.05l.17-.13a5.54,5.54,0,0,1,.65-.42,1,1,0,0,0,.36-1.37h0a1,1,0,0,0-1.37-.36h0a10.79,10.79,0,0,0-1.43,1h0l-.17.13-.32.23c-.22.15-.45.25-.67.39-.53.3-1,.67-1.5,1a6.28,6.28,0,0,1-.78.48l-.2.1c-.17.09.06,0,0,0a3.81,3.81,0,0,1-.45.13l1.23,1.23s.14-.38.07-.21l.16-.34c.11-.23.24-.45.36-.66.24-.4.51-.79.77-1.17a14.66,14.66,0,0,0,1.48-2.42,1,1,0,0,0-.36-1.37h0a1,1,0,0,0-1.37.36h0Z" transform="translate(0.01)"/><g class="cls-7"><text class="cls-8" transform="translate(102.89 230.94)">P</text><text class="cls-9" transform="translate(130.22 230.94)">a</text><text class="cls-10" transform="translate(155.48 230.94)">g</text><text class="cls-11" transform="translate(181.56 230.94)">e</text></g><text class="cls-11" transform="translate(216.09 230.94)">not</text><g class="cls-7"><text class="cls-12" transform="translate(295.5 230.94)">f</text><text class="cls-11" transform="translate(309.4 230.94)">ound</text></g><path class="cls-13" d="M290.43,351.07c-8-.56-14.8,3.89-15.19,9.94S281,372.42,289,373s14.8-3.9,15.19-9.95S298.43,351.63,290.43,351.07Z" transform="translate(0.01)"/><path class="cls-13" d="M279.77,336.42c-4-.27-7.4,1.95-7.59,5s2.89,5.71,6.89,6,7.4-1.95,7.6-5S283.78,336.7,279.77,336.42Z" transform="translate(0.01)"/><path class="cls-13" d="M311.72,342.66c-4-.28-7.4,1.94-7.59,5s2.89,5.7,6.89,6,7.4-2,7.59-5S315.72,342.93,311.72,342.66Z" transform="translate(0.01)"/><path class="cls-14" d="M50.14,512.75c3.45,5.31,34.22,40.92,6.33,26.64-13.41-6.86-10.54,9.5-5.57,19.49,5.4,10.89-3.65,21.51-8.65,8.49-6.23-16.21-10.72-16.07-11.35-1-.37,8.69-13.28,13.56-12.18.44,1.43-16.88-1.35-23.56-7.73-10.74C7.05,564-4.1,563.48,1.57,550.28c3.17-7.37,3.57-18.75,3.67-27.57C22.18,523.37,38,518.24,50.14,512.75Z" transform="translate(0.01)"/><path class="cls-13" d="M19.89,530.1c-3.92-.87-7.59.84-8.19,3.8s2.09,6.07,6,6.94,7.59-.84,8.2-3.81S23.82,531,19.89,530.1Z" transform="translate(0.01)"/><path class="cls-13" d="M32.05,526.24c-2.51-.55-4.85.54-5.23,2.43s1.33,3.87,3.83,4.42,4.85-.53,5.23-2.42S34.55,526.75,32.05,526.24Z" transform="translate(0.01)"/><path class="cls-13" d="M39.83,538.37c-2.5-.56-4.84.53-5.23,2.42s1.34,3.87,3.84,4.42,4.84-.53,5.23-2.42S42.37,538.92,39.83,538.37Z" transform="translate(0.01)"/><path class="cls-15" d="M230.83,671.41c-47.25-20.47-87.46-83.09-104.71-151.17-11-43.38-12.62-89-.74-127.29,7.31-23.6,9.27-52.4-19.5-30-40.59,31.49-71.9,77.29-63.11,130a74.63,74.63,0,0,0,3.33,13.82c2,5.27,40.09,47.86,10.37,32.64-13.41-6.86-10.54,9.5-5.57,19.49,5.4,10.89-3.65,21.51-8.65,8.49-6.23-16.21-10.72-16.07-11.35-1-.37,8.69-13.28,13.56-12.18.44,1.43-16.88-1.35-23.56-7.73-10.74C7.05,564-4.1,563.48,1.57,550.28,9.63,531.52-.31,489,14,448.9c30.86-86.13,159.3-148,249.05-148,86.39,0,252.49,8.21,243.81,129.08-1.46,20.33-7.83,44.55-6.91,64.85.65,14.44-9.91,10.68-10.8,1.81-1.44-14.36-6.37-9.2-11,7.06-3.56,12.64-13.88,3.19-11.18-5,4.71-14.32.58-16.16-10.9-3.43-9.22,10.22-13.92-3.11-5.07-11.19,8.12-7.42,16.53-21.55,1.64-20.26-27.63,2.4,5.86-17.17,9.72-24l.42-.76c32.26-58.61-13.88-93.74-61.69-107.14-21.87-6.13-17.15,13.69-8.89,28.07,19.22,33.46,24.62,75.71,16.79,117.85-12.34,66.33-54,131.05-105.45,153.35,33.51-42.69,49.72-88.64-40.52-88.64S197.37,628.72,230.83,671.41Z" transform="translate(0.01)"/><path class="cls-15" d="M303.6,631.17c-1.56,3.47-1.51,7-1.65,12.73-.13,5.3,14.45,15.71,18.76,15.45,18.92-1.16,23.16,26.44,55.67,12,11.59-5.14,7.82-47.7-24.38-35.09-7.73-11.41-30.3-16.33-21.13-22C341.45,607.62,312.13,612.24,303.6,631.17Z" transform="translate(0.01)"/><path class="cls-15" d="M230.83,671.41c1.57,3.47,1.51,7,1.65,12.74.13,5.3-14.44,15.71-18.75,15.45-18.92-1.16-23.16,26.44-55.68,12-11.59-5.14-10.45-46,24.38-35.09,7.73-11.41,30.31-16.33,21.14-22C193,647.86,222.3,652.51,230.83,671.41Z" transform="translate(0.01)"/><path class="cls-16" d="M408,483c-25.08,17.5-74.81,33.63-135.8,37.85a427.05,427.05,0,0,1-149.57-16q1.55,7.73,3.48,15.37,1.55,6.12,3.34,12.16a447.72,447.72,0,0,0,104.09,14.19c8.08-2.61,17.83-4.07,29.53-4.07a186.47,186.47,0,0,1,26.51,1.72c43.6-4.64,81.58-15.4,109.16-28.42A248.86,248.86,0,0,0,408,483Z" transform="translate(0.01)"/><path class="cls-16" d="M411.56,422c-22.62,16.4-72,28.95-132.77,30.18-49.19,1-105.29-5.76-160.43-24.3a224.88,224.88,0,0,0-1.19,25.56,502.94,502.94,0,0,0,162.08,23.47c55.48-1.13,103.18-12.05,133.07-27.43A188.16,188.16,0,0,0,411.56,422Z" transform="translate(0.01)"/><path class="cls-16" d="M392.64,360.64c-22.88,14.44-62.26,26.15-110,28.64a362.92,362.92,0,0,1-152.82-25.49c.83,6.61-.71,16-3.23,25.14A385.78,385.78,0,0,0,283.76,414c49.55-2.58,91.8-15.22,119-31.42A143,143,0,0,0,392.64,360.64Z" transform="translate(0.01)"/><path class="cls-16" d="M430.15,323.53C383,307,329.21,299.39,263.08,300.9c-65.48,1.49-132.52,24.2-176.9,60.85-3.93,8.16.31,9.69,8.13,10.78,25.14-17.29,33.31-21.69,35.47-8.74,17.66-18,77.26-46.52,133.45-46.52,26.81,0,61.5,6.75,81.38,13.56,21.06,7.2,35.91,14.39,43.75,21.24-11-25.16,13-21.69,34.89-12.25C425.92,334.33,429.07,326.39,430.15,323.53Z" transform="translate(0.01)"/><path class="cls-16" d="M507,414.68c-2.16-.26-4.37-.58-6.6-1A93.74,93.74,0,0,1,473.5,405a72.52,72.52,0,0,1-6,24.35,120.39,120.39,0,0,0,29,8.73c3.16.55,6.32,1,9.44,1.29.37-3,.7-6.08.94-9.46A119.7,119.7,0,0,0,507,414.68Z" transform="translate(0.01)"/><path class="cls-16" d="M481,355c-.91.45-1.84.89-2.77,1.32a101.18,101.18,0,0,1-20.51,7.09,60,60,0,0,1,13.26,22,129.24,129.24,0,0,0,16.93-6.48c2.74-1.27,5.42-2.63,8-4.05A91.58,91.58,0,0,0,481,355Z" transform="translate(0.01)"/><path class="cls-16" d="M430.15,323.53a113.19,113.19,0,0,1-6.9,16.29,122,122,0,0,1,20.9,11.78A136,136,0,0,0,452,333.55,181.46,181.46,0,0,0,430.15,323.53Z" transform="translate(0.01)"/><path class="cls-16" d="M67.14,376.66c.72,1,1.45,2.1,2.19,3.14,2.43,3.39,5,6.71,7.81,9.91a204.67,204.67,0,0,1,17.17-17.18q-3.09-3.66-5.89-7.57c-.77-1.07-1.51-2.14-2.24-3.21C79.55,366.5,73.18,371.47,67.14,376.66Z" transform="translate(0.01)"/><path class="cls-16" d="M25.72,424.49q3.53,3.18,7.33,6.16a134.89,134.89,0,0,0,14,9.6,129.9,129.9,0,0,1,10-22.53,111.87,111.87,0,0,1-9.76-6.86c-2.64-2.06-5.14-4.19-7.49-6.33A171.3,171.3,0,0,0,25.72,424.49Z" transform="translate(0.01)"/><path class="cls-16" d="M6.56,482.32C12,484.46,16.71,485.5,22.61,487a127.11,127.11,0,0,0,19.76,3.28,107.23,107.23,0,0,1-.62-25,106.86,106.86,0,0,1-13.64-2.48,117.93,117.93,0,0,1-16.87-5.52C8.37,466.38,7.62,475.05,6.56,482.32Z" transform="translate(0.01)"/><path class="cls-17" d="M362.31,418.46,184.37,406.05l15.54,57.77c10.77,40.07,123.85,47.78,139.58,9.73Z" transform="translate(0.01)"/><path class="cls-18" d="M344.64,444.31a12.92,12.92,0,0,1-13.48,12.35h-.09a13.08,13.08,0,0,1-11.86-14.12,12.93,12.93,0,0,1,13.47-12.36h.1A13.1,13.1,0,0,1,344.64,444.31Z" transform="translate(0.01)"/><path class="cls-18" d="M307.84,434.71a12.93,12.93,0,0,1-13.47,12.36h-.09a13.09,13.09,0,0,1-11.86-14.13,12.91,12.91,0,0,1,13.46-12.35h.1A13.08,13.08,0,0,1,307.84,434.71Z" transform="translate(0.01)"/><path class="cls-18" d="M262.27,431.51a12.91,12.91,0,0,1-13.46,12.35h-.1a13.08,13.08,0,0,1-11.86-14.12,12.91,12.91,0,0,1,13.46-12.35h.06A13.09,13.09,0,0,1,262.27,431.51Z" transform="translate(0.01)"/><path class="cls-18" d="M222.11,435.45a12.91,12.91,0,0,1-13.46,12.35h-.1a13.1,13.1,0,0,1-11.86-14.13,12.91,12.91,0,0,1,13.46-12.35h.1A13.1,13.1,0,0,1,222.11,435.45Z" transform="translate(0.01)"/><path class="cls-18" d="M302.66,480.24a12.91,12.91,0,0,1-13.46,12.35h-.1a13.08,13.08,0,0,1-11.86-14.12,12.93,12.93,0,0,1,13.47-12.36h.09A13.1,13.1,0,0,1,302.66,480.24Z" transform="translate(0.01)"/><path class="cls-18" d="M259,476.76a12.94,12.94,0,0,1-13.49,12.36h-.07A13.09,13.09,0,0,1,233.59,475a12.91,12.91,0,0,1,13.46-12.35h.1A13.08,13.08,0,0,1,259,476.76Z" transform="translate(0.01)"/><path class="cls-14" d="M278.51,332C220.32,328,171.12,356.35,168.6,395.41a52.27,52.27,0,0,0,12.36,37c6.72,8.09,70.11-4.28,91.28-2.81,29.25,2,80.6,26.46,93.47,11.89,8.05-9.11,12.88-19.81,13.62-31.41C381.84,371.05,336.71,336.09,278.51,332Z" transform="translate(0.01)"/><path class="cls-14" d="M388.15,381.37c-7.61-.53-14.46,9.63-15.31,22.69s4.65,24.09,12.26,24.62,14.47-9.63,15.31-22.7S395.76,381.9,388.15,381.37Z" transform="translate(0.01)"/><path class="cls-14" d="M164.37,365.76c-7.61-.53-14.46,9.63-15.3,22.69s4.65,24.09,12.26,24.62,14.46-9.63,15.3-22.69S172,366.29,164.37,365.76Z" transform="translate(0.01)"/><path class="cls-19" d="M206.13,358c-18.54,1.38-32.49,18.16-31.16,37.47s17.43,33.84,36,32.45,32.49-18.16,31.16-37.47S224.67,356.57,206.13,358Z" transform="translate(0.01)"/><path class="cls-18" d="M236.46,387.16c1.1,15.93-10.41,29.76-25.7,30.91s-28.58-10.83-29.68-26.78,10.41-29.76,25.71-30.9S235.37,371.24,236.46,387.16Z" transform="translate(0.01)"/><path class="cls-17" d="M206.08,386.44a10.45,10.45,0,0,1-9.4,11.31A10.3,10.3,0,0,1,185.82,388V388a10.44,10.44,0,0,1,9.4-11.3,10.29,10.29,0,0,1,10.85,9.69Z" transform="translate(0.01)"/><path class="cls-20" d="M192.93,392.24a3.38,3.38,0,0,1-3,3.66,3.34,3.34,0,0,1-3.52-3.15v0a3.39,3.39,0,0,1,3.05-3.67A3.35,3.35,0,0,1,192.93,392.24Z" transform="translate(0.01)"/><path class="cls-19" d="M337.62,367.12c-18.54,1.39-32.49,18.16-31.16,37.47s17.43,33.84,36,32.45,32.49-18.16,31.16-37.47S356.16,365.74,337.62,367.12Z" transform="translate(0.01)"/><path class="cls-18" d="M368,396.33c1.1,15.93-10.41,29.76-25.7,30.91s-28.58-10.85-29.68-26.78,10.41-29.76,25.71-30.9S366.85,380.4,368,396.33Z" transform="translate(0.01)"/><path class="cls-17" d="M337.57,395.61a10.45,10.45,0,0,1-9.4,11.31,10.3,10.3,0,0,1-10.86-9.71v-.09a10.44,10.44,0,0,1,9.4-11.3,10.29,10.29,0,0,1,10.85,9.69Z" transform="translate(0.01)"/><path class="cls-20" d="M320.91,398.24a3.39,3.39,0,0,0-3.05,3.67,3.32,3.32,0,0,0,3.48,3.17h0a3.38,3.38,0,0,0,3-3.66A3.35,3.35,0,0,0,320.91,398.24Z" transform="translate(0.01)"/><path class="cls-14" d="M203.25,476.42c10.21,13.57,42.17,22.37,65.84,24,23.46,1.64,54.41-6.76,63.25-14.09,9.06-7.51,14-21.18,6.15-18.33-8,2.93-37.49,13.65-68.06,11.52-29-2-59.2-14.07-70.89-18.86C197.31,459.76,193.48,463.42,203.25,476.42Z" transform="translate(0.01)"/><path class="cls-14" d="M213.57,643.54c2.49,4.62,10.65,18.71,12.73,20.88,1.25,22.13-40.26,9.12-32.88,2.55,5.46-3.48,7.52-14.44,2.58-19.12C204.72,649.78,209,648.24,213.57,643.54Z" transform="translate(0.01)"/><path class="cls-14" d="M337.2,609.64c-4.1,2.19-7.15,10.33-.94,14.18s6.82,11.45.27,14.86-30.35.56-29.29-13.44c4.34-4.5,11.71-16.17,16-24.2C321,605.61,332.94,613,337.2,609.64Z" transform="translate(0.01)"/><path class="cls-14" d="M501.87,467c-.85,7.26-2.22,20.74-1.89,27.86.65,14.44-9.91,10.68-10.8,1.81-1.44-14.36-6.37-9.2-11,7.06-3.56,12.64-13.88,3.19-11.18-5,4.71-14.32.58-16.16-10.9-3.43-9.22,10.22-13.92-3.11-5.07-11.19,8.12-7.42,16.53-21.55,1.64-20.26-27.85,2.42,5.45-17.12,8.84-22.76C472.79,453.67,487.92,462.12,501.87,467Z" transform="translate(0.01)"/><path class="cls-13" d="M487,470.91c-3.93-.86-7.59.84-8.2,3.8s2.09,6.08,6,6.94,7.6-.84,8.2-3.8S490.87,471.78,487,470.91Z" transform="translate(0.01)"/><path class="cls-13" d="M476.52,459.72c-2.5-.55-4.84.54-5.22,2.43s1.33,3.87,3.83,4.42,4.84-.53,5.23-2.43S479,460.24,476.52,459.72Z" transform="translate(0.01)"/><path class="cls-13" d="M205,662.4c-3.93-.87-7.59.84-8.2,3.8s2.09,6.07,6,6.94,7.6-.84,8.2-3.81S208.94,663.24,205,662.4Z" transform="translate(0.01)"/><path class="cls-13" d="M217,663c-2.5-.55-4.84.54-5.23,2.43s1.33,3.87,3.84,4.42,4.84-.53,5.22-2.42S219.48,663.5,217,663Z" transform="translate(0.01)"/><path class="cls-13" d="M335,625.43c-2.5-.55-4.84.53-5.22,2.42s1.33,3.88,3.83,4.43,4.84-.54,5.23-2.43S337.54,626,335,625.43Z" transform="translate(0.01)"/><path class="cls-13" d="M329.16,620.09c-1.83-.4-3.54.39-3.82,1.78s1,2.83,2.8,3.23,3.54-.39,3.82-1.78S331,620.5,329.16,620.09Z" transform="translate(0.01)"/><path class="cls-19" d="M165.11,372.09c-4.51-.31-8.56,5.7-9.06,13.43s2.75,14.26,7.26,14.57,8.56-5.69,9.06-13.43S169.62,372.4,165.11,372.09Z" transform="translate(0.01)"/><path class="cls-19" d="M384.28,389.15c4.52,0,8.21,6.23,8.25,14s-3.58,14.09-8.09,14.09-8.21-6.24-8.26-14S379.76,389.18,384.28,389.15Z" transform="translate(0.01)"/><path class="cls-17" d="M233.81,317.3c-31.39,6.27-55.43,18.38-53.7,27.06s28.58,10.64,60,4.37,55.44-18.38,53.71-27.06S265.2,311,233.81,317.3Z" transform="translate(0.01)"/><path class="cls-19" d="M263.08,269.92,188.6,284.79l11.11,55.66c.86,4.33,18.24,4.51,38.8.4s36.54-10.94,35.68-15.26Z" transform="translate(0.01)"/><path class="cls-20" d="M263.08,269.92,188.6,284.79l8.14,40.76c.86,4.33,18.23,4.51,38.8.41s36.54-10.94,35.67-15.27Z" transform="translate(0.01)"/><path class="cls-19" d="M224.28,269.52c-20.57,4.11-36.54,10.94-35.68,15.27s18.24,4.5,38.8.4,36.54-10.94,35.68-15.27S244.84,265.42,224.28,269.52Z" transform="translate(0.01)"/><text class="cls-21" transform="translate(84.7 173.75)">404</text></g></svg>