<svg id="Layer_1" data-name="Layer 1" xmlns="http://www.w3.org/2000/svg" viewBox="0 0 495 495"><defs><style>.cls-1{fill:#d8b6d6;}.cls-2{fill:#fff;}</style></defs><circle class="cls-1" cx="247.5" cy="247.5" r="247.5"/><path class="cls-2" d="M441.58,250c0-25.38-31.79-49.44-80.52-64.35C372.3,136,367.3,96.5,345.28,83.85a34.22,34.22,0,0,0-17.49-4.38V96.89a18.05,18.05,0,0,1,8.9,2c10.62,6.09,15.23,29.29,11.64,59.12-.86,7.34-2.27,15.07-4,23a377.37,377.37,0,0,0-49.59-8.51,380.56,380.56,0,0,0-32.49-39.05c25.46-23.67,49.36-36.63,65.6-36.63V79.39h0c-21.47,0-49.59,15.31-78,41.87-28.42-26.4-56.54-41.55-78-41.55V97.12c16.17,0,40.15,12.89,65.61,36.4a368.24,368.24,0,0,0-32.26,39,363.61,363.61,0,0,0-49.67,8.59c-1.8-7.81-3.12-15.39-4.06-22.65-3.67-29.83.86-53,11.4-59.2a17.46,17.46,0,0,1,9-2V79.78h0a34.82,34.82,0,0,0-17.65,4.38c-21.94,12.65-26.86,52.09-15.54,101.6-48.58,15-80.21,39-80.21,64.28s31.79,49.44,80.52,64.35c-11.24,49.67-6.24,89.19,15.78,101.84a34.31,34.31,0,0,0,17.57,4.38c21.48,0,49.59-15.31,78-41.87,28.43,26.4,56.55,41.55,78,41.55A34.79,34.79,0,0,0,346,415.92c21.95-12.65,26.87-52.09,15.54-101.61C410,299.4,441.58,275.34,441.58,250ZM339.89,198C337,208,333.41,218.41,329.35,228.8c-3.2-6.25-6.56-12.5-10.23-18.75s-7.42-12.34-11.25-18.27C319,193.42,329.66,195.45,339.89,198Zm-35.77,83.17C298,291.67,291.78,301.66,285.3,311c-11.64,1-23.43,1.56-35.3,1.56S226.41,312,214.86,311c-6.49-9.29-12.81-19.21-18.9-29.67-5.94-10.23-11.33-20.62-16.25-31.09,4.84-10.46,10.31-20.93,16.17-31.16,6.09-10.54,12.34-20.54,18.82-29.83,11.64-1,23.43-1.56,35.3-1.56s23.59.54,35.14,1.48q9.74,13.94,18.9,29.68C310,229.11,315.37,239.5,320.29,250,315.37,260.43,310,270.89,304.12,281.12ZM329.35,271c4.22,10.46,7.81,20.93,10.78,31.08-10.24,2.5-21,4.61-32.18,6.25,3.83-6,7.65-12.18,11.24-18.51S326.15,277.22,329.35,271ZM250.16,354.3a321.59,321.59,0,0,1-21.72-25c7,.31,14.22.55,21.48.55s14.61-.16,21.71-.55A306,306,0,0,1,250.16,354.3Zm-58.11-46c-11.09-1.64-21.79-3.67-32-6.17,2.89-10.07,6.48-20.46,10.54-30.85,3.21,6.25,6.56,12.5,10.23,18.75S188.22,302.36,192.05,308.3Zm57.72-162.52a323.69,323.69,0,0,1,21.71,25c-7-.31-14.22-.55-21.48-.55s-14.6.16-21.71.55A304.1,304.1,0,0,1,249.77,145.78Zm-57.8,46c-3.82,6-7.65,12.18-11.24,18.51s-6.95,12.49-10.16,18.74c-4.21-10.46-7.81-20.93-10.77-31.08C170,195.53,180.8,193.42,192,191.78Zm-70.68,97.78C93.65,277.76,75.76,262.3,75.76,250s17.89-27.8,45.53-39.52c6.72-2.89,14.06-5.47,21.64-7.89A375.67,375.67,0,0,0,160.5,250.2a369.68,369.68,0,0,0-17.34,47.32C135.43,295.1,128.09,292.45,121.29,289.56Zm42,111.6c-10.62-6.09-15.23-29.29-11.64-59.12.86-7.34,2.27-15.07,4-23a377.37,377.37,0,0,0,49.59,8.51,380.56,380.56,0,0,0,32.49,39.05c-25.46,23.66-49.36,36.63-65.6,36.63A18.63,18.63,0,0,1,163.31,401.16Zm185.25-59.51c3.67,29.83-.86,53-11.4,59.2a17.46,17.46,0,0,1-9,2c-16.17,0-40.15-12.89-65.61-36.4a368.24,368.24,0,0,0,32.26-39,363.61,363.61,0,0,0,49.67-8.59A218.18,218.18,0,0,1,348.56,341.65Zm30.07-52.09c-6.72,2.89-14.06,5.46-21.64,7.88a374.58,374.58,0,0,0-17.57-47.56,368.72,368.72,0,0,0,17.34-47.32c7.73,2.42,15.07,5.07,21.95,8,27.64,11.79,45.53,27.26,45.53,39.52S406.27,277.84,378.63,289.56Z" transform="translate(-2.5 -2.5)"/><path class="cls-2" d="M171.75,79.71Z" transform="translate(-2.5 -2.5)"/><circle class="cls-2" cx="247.42" cy="247.54" r="35.69"/><path class="cls-2" d="M327.71,79.47Z" transform="translate(-2.5 -2.5)"/></svg>