<svg id="Layer_1" data-name="Layer 1" xmlns="http://www.w3.org/2000/svg" viewBox="0 0 495 495"><defs><style>.cls-1{fill:#d8b6d6;}.cls-2{fill:#fff;}</style></defs><circle class="cls-1" cx="247.5" cy="247.5" r="247.5"/><path class="cls-2" d="M300.39,319.06l-.18-.69-2.74,2.52c-19.31,18.45-37.21,32.32-56.44,43.7l125.77,9.87-64.58-57.33Z" transform="translate(-2.5 -2.5)"/><path class="cls-2" d="M373.63,351.44,385.78,192.3a256.52,256.52,0,0,1-27.17,55.49Z" transform="translate(-2.5 -2.5)"/><path class="cls-2" d="M306,313.18l65,57.67L354.1,254.64C339.28,276.53,322.3,295.89,306,313.18Z" transform="translate(-2.5 -2.5)"/><path class="cls-1" d="M350.54,87.27c.8.2,1.57.44,2.35.66l.4.09Z" transform="translate(-2.5 -2.5)"/><path class="cls-1" d="M83.1,344.06l0-.32c-.09-.73-.2-1.44-.29-2.17Z" transform="translate(-2.5 -2.5)"/><path class="cls-1" d="M393.62,135.34v0s0,.1,0,.14Z" transform="translate(-2.5 -2.5)"/><path class="cls-1" d="M393.62,135.37c-.22-1.53-.46-3-.75-4.41l.14,0-.91-3.87c-4.67-19.8-18.16-33.19-39.21-39.18L343,85.72l-.71-.12-.15.08-.16,0-.1,0-82.7-.38-4.62,0-3,1.13.11,0-1.36.51-61.36,23-.4.36c-7.48,7-17.54,16.41-27.27,25.56-15.74,14.78-33.55,31.52-35.62,33.12-1.34.76-3.35,3.66-36.62,66.28l-2.48,4.67L84.86,243l1.32,3.75-4,84.14-.08.15,0,.74c0,.06,0,.12,0,.18l1,11.81c2.8,20.34,11.38,34.9,25.63,43.33a59.56,59.56,0,0,0,17.65,6.72l-.23,0,10.53,2.84,10-.43,3.61-.09,2.15-.3,224.34-14.12.42-5.54L394,156c.08-.86.14-1.71.2-2.55Zm-50.4-44.09c22.53,3.91,36.81,15.06,42.52,33.18L303.85,113ZM189,274.57l81-75.29L281.69,245,298,309.59l-.33-.1Zm107,40.24c-21.89,21.21-41.79,36.36-63.75,48.57l-43-83Zm-20-114.91c25.58,15.72,69,42.3,76.77,47-15,23-32.51,43.21-49.45,61.22Zm4.56-3.58,99.87-6.67c-5.48,18.89-20.85,46.15-25.45,52.25C346.24,236.63,306.31,212.18,280.48,196.32ZM275.32,191l22.46-71.32,79,64.53Zm56.75-99.9-36.33,20.07L266.9,90.81ZM93.79,237.76c11.33-21.34,32.32-60.83,35-64.48,1.93-1.48,8.43-7.5,36.11-33.52,9.56-9,19.44-18.25,26.86-25.16l64.93-24.3,33.75,23.82,2.46,2.81L269.49,191.4l-2.35,3.11-84.09,78.16-3.16,1.62L107.4,290.56,90.78,243.42ZM91,260.33l11.66,33.07L88.12,319.94Zm5.58,107.34c-5.06-8.32-8.47-19.72-9-35.34l14.13-25.85Zm5,5,5.9-70.25c8.08,17.34,26.27,62.52,35.71,86C125.94,389.31,112.14,386.53,101.59,372.71Zm46.3,12.44-2.47-5.76-.18-.43c-22.56-56-31.24-76-35.15-83.43l69.57-15.61Zm4.24,4.8L184.41,283l43,82.86C205.23,377.8,180.4,386.72,152.13,390Zm37.87-2.4a221.06,221.06,0,0,0,39.87-16.84l.06.11,2.43-1.32.21-.12,105,8.24Zm51-23c19.23-11.38,37.13-25.25,56.44-43.7l2.74-2.52.18.69,1.83-1.93,64.58,57.33ZM306,313.18c16.34-17.29,33.32-36.65,48.14-58.54l16.84,116.21Zm67.67,38.26-15-103.65a256.52,256.52,0,0,0,27.17-55.49Zm9.53-169.07-77.9-63.71,81.89,11.5C389.88,141.91,390.32,159,383.16,182.37Z" transform="translate(-2.5 -2.5)"/><path class="cls-2" d="M232.36,369.5l-2.43,1.32-.06-.11A221.06,221.06,0,0,1,190,387.55l147.53-9.93-105-8.24Z" transform="translate(-2.5 -2.5)"/><path class="cls-2" d="M110.09,295.53C114,302.91,122.68,323,145.24,379l.18.43,2.47,5.76,31.77-105.23Z" transform="translate(-2.5 -2.5)"/><polygon class="cls-2" points="295.5 307.09 279.19 242.51 267.52 196.78 186.49 272.07 295.17 306.99 295.5 307.09"/><polygon class="cls-2" points="272.82 188.51 374.29 181.72 295.28 117.19 272.82 188.51"/><polygon class="cls-2" points="329.57 88.61 264.4 88.31 293.24 108.68 329.57 88.61"/><polygon class="cls-2" points="88.47 257.83 85.62 317.44 100.13 290.9 88.47 257.83"/><path class="cls-2" d="M179.89,274.29l3.16-1.62,84.09-78.16,2.35-3.11,23.45-74.47-2.46-2.81L256.73,90.3,191.8,114.6c-7.42,6.91-17.3,16.19-26.86,25.16-27.68,26-34.18,32-36.11,33.52-2.72,3.65-23.71,43.14-35,64.48l-3,5.66,16.62,47.14Z" transform="translate(-2.5 -2.5)"/><path class="cls-2" d="M184.41,283,152.13,390c28.27-3.23,53.1-12.15,75.23-24.08Z" transform="translate(-2.5 -2.5)"/><path class="cls-2" d="M352.69,246.92c-7.79-4.72-51.19-31.3-76.77-47l27.32,108.24C320.18,290.13,337.72,269.89,352.69,246.92Z" transform="translate(-2.5 -2.5)"/><path class="cls-2" d="M305.26,118.66l77.9,63.71c7.16-23.41,6.72-40.46,4-52.21Z" transform="translate(-2.5 -2.5)"/><path class="cls-2" d="M87.56,332.33c.52,15.62,3.93,27,9,35.34l5.14-61.19Z" transform="translate(-2.5 -2.5)"/><path class="cls-2" d="M380.35,189.65l-99.87,6.67c25.83,15.86,65.76,40.31,74.42,45.58C359.5,235.8,374.87,208.54,380.35,189.65Z" transform="translate(-2.5 -2.5)"/><path class="cls-2" d="M296,314.81,189.18,280.37l43,83C254.16,351.17,274.06,336,296,314.81Z" transform="translate(-2.5 -2.5)"/><path class="cls-2" d="M101.59,372.71c10.55,13.82,24.35,16.6,41.61,15.76-9.44-23.49-27.63-68.67-35.71-86Z" transform="translate(-2.5 -2.5)"/><path class="cls-2" d="M385.74,124.46c-5.71-18.12-20-29.27-42.52-33.18L303.85,113Z" transform="translate(-2.5 -2.5)"/></svg>